<mxfile host="app.diagrams.net" modified="2023-09-15T06:02:25.322Z" agent="Mozilla/5.0 (Windows NT 10.0; Win64; x64) AppleWebKit/537.36 (KHTML, like Gecko) Chrome/100.0.4896.75 Safari/537.36" etag="oN2vN2IZYCYsS5SNvKCR" version="21.2.3" type="github">
  <diagram id="i7gGXflLBzXJQ1Onad0F" name="第 1 页">
    <mxGraphModel dx="1436" dy="818" grid="1" gridSize="10" guides="1" tooltips="1" connect="1" arrows="1" fold="1" page="1" pageScale="1" pageWidth="827" pageHeight="1169" math="0" shadow="0">
      <root>
        <mxCell id="0" />
        <mxCell id="1" parent="0" />
        <mxCell id="96Z2TRk2g2hctk14bLeR-65" style="edgeStyle=orthogonalEdgeStyle;rounded=0;orthogonalLoop=1;jettySize=auto;html=1;exitX=0.5;exitY=0;exitDx=0;exitDy=0;entryX=0.5;entryY=1;entryDx=0;entryDy=0;" parent="1" source="6hGsSX0xc1QD5v10wT_n-3" target="96Z2TRk2g2hctk14bLeR-2" edge="1">
          <mxGeometry relative="1" as="geometry" />
        </mxCell>
        <mxCell id="6hGsSX0xc1QD5v10wT_n-3" value="" style="whiteSpace=wrap;html=1;aspect=fixed;fillColor=#dae8fc;strokeColor=#6c8ebf;" parent="1" vertex="1">
          <mxGeometry x="71" y="1258" width="50" height="50" as="geometry" />
        </mxCell>
        <mxCell id="6hGsSX0xc1QD5v10wT_n-2" value="" style="whiteSpace=wrap;html=1;aspect=fixed;fillColor=#d5e8d4;strokeColor=#82b366;" parent="1" vertex="1">
          <mxGeometry x="61" y="1268" width="50" height="50" as="geometry" />
        </mxCell>
        <mxCell id="6hGsSX0xc1QD5v10wT_n-1" value="" style="whiteSpace=wrap;html=1;aspect=fixed;fillColor=#f8cecc;strokeColor=#b85450;" parent="1" vertex="1">
          <mxGeometry x="51" y="1278" width="50" height="50" as="geometry" />
        </mxCell>
        <mxCell id="96Z2TRk2g2hctk14bLeR-6" style="edgeStyle=orthogonalEdgeStyle;rounded=0;orthogonalLoop=1;jettySize=auto;html=1;exitX=0.5;exitY=0;exitDx=0;exitDy=0;" parent="1" source="96Z2TRk2g2hctk14bLeR-2" target="96Z2TRk2g2hctk14bLeR-5" edge="1">
          <mxGeometry relative="1" as="geometry" />
        </mxCell>
        <mxCell id="96Z2TRk2g2hctk14bLeR-2" value="BConv" style="rounded=1;whiteSpace=wrap;html=1;fillColor=#dae8fc;strokeColor=#6c8ebf;" parent="1" vertex="1">
          <mxGeometry x="36" y="1065.03" width="120" height="20" as="geometry" />
        </mxCell>
        <mxCell id="96Z2TRk2g2hctk14bLeR-8" value="" style="edgeStyle=orthogonalEdgeStyle;rounded=0;orthogonalLoop=1;jettySize=auto;html=1;" parent="1" source="96Z2TRk2g2hctk14bLeR-5" target="96Z2TRk2g2hctk14bLeR-7" edge="1">
          <mxGeometry relative="1" as="geometry" />
        </mxCell>
        <mxCell id="96Z2TRk2g2hctk14bLeR-5" value="BConv" style="rounded=1;whiteSpace=wrap;html=1;fillColor=#dae8fc;strokeColor=#6c8ebf;" parent="1" vertex="1">
          <mxGeometry x="36" y="995" width="120" height="20" as="geometry" />
        </mxCell>
        <mxCell id="96Z2TRk2g2hctk14bLeR-10" style="edgeStyle=orthogonalEdgeStyle;rounded=0;orthogonalLoop=1;jettySize=auto;html=1;exitX=0.5;exitY=0;exitDx=0;exitDy=0;" parent="1" source="96Z2TRk2g2hctk14bLeR-7" target="96Z2TRk2g2hctk14bLeR-9" edge="1">
          <mxGeometry relative="1" as="geometry" />
        </mxCell>
        <mxCell id="96Z2TRk2g2hctk14bLeR-7" value="BConv" style="rounded=1;whiteSpace=wrap;html=1;fillColor=#dae8fc;strokeColor=#6c8ebf;" parent="1" vertex="1">
          <mxGeometry x="36" y="930" width="120" height="20" as="geometry" />
        </mxCell>
        <mxCell id="96Z2TRk2g2hctk14bLeR-12" style="edgeStyle=orthogonalEdgeStyle;rounded=0;orthogonalLoop=1;jettySize=auto;html=1;exitX=0.5;exitY=0;exitDx=0;exitDy=0;" parent="1" source="96Z2TRk2g2hctk14bLeR-9" target="96Z2TRk2g2hctk14bLeR-11" edge="1">
          <mxGeometry relative="1" as="geometry" />
        </mxCell>
        <mxCell id="96Z2TRk2g2hctk14bLeR-9" value="BConv" style="rounded=1;whiteSpace=wrap;html=1;fillColor=#dae8fc;strokeColor=#6c8ebf;" parent="1" vertex="1">
          <mxGeometry x="36" y="870" width="120" height="20" as="geometry" />
        </mxCell>
        <mxCell id="96Z2TRk2g2hctk14bLeR-339" style="edgeStyle=orthogonalEdgeStyle;curved=1;rounded=0;orthogonalLoop=1;jettySize=auto;html=1;exitX=0.5;exitY=0;exitDx=0;exitDy=0;entryX=0.5;entryY=1;entryDx=0;entryDy=0;fontSize=12;" parent="1" source="96Z2TRk2g2hctk14bLeR-11" target="96Z2TRk2g2hctk14bLeR-17" edge="1">
          <mxGeometry relative="1" as="geometry" />
        </mxCell>
        <mxCell id="b3Fnygi5dWCpyMjXDEdl-10" style="edgeStyle=orthogonalEdgeStyle;rounded=0;orthogonalLoop=1;jettySize=auto;html=1;exitX=0.5;exitY=0;exitDx=0;exitDy=0;entryX=0;entryY=0.5;entryDx=0;entryDy=0;" parent="1" source="96Z2TRk2g2hctk14bLeR-11" target="b3Fnygi5dWCpyMjXDEdl-9" edge="1">
          <mxGeometry relative="1" as="geometry">
            <mxPoint x="150" y="720" as="targetPoint" />
            <Array as="points">
              <mxPoint x="96" y="720" />
            </Array>
          </mxGeometry>
        </mxCell>
        <mxCell id="96Z2TRk2g2hctk14bLeR-11" value="E-ELAN" style="rounded=1;whiteSpace=wrap;html=1;fillColor=#d5e8d4;strokeColor=#82b366;" parent="1" vertex="1">
          <mxGeometry x="36" y="805.03" width="120" height="20" as="geometry" />
        </mxCell>
        <mxCell id="96Z2TRk2g2hctk14bLeR-20" value="" style="edgeStyle=orthogonalEdgeStyle;rounded=0;orthogonalLoop=1;jettySize=auto;html=1;" parent="1" source="96Z2TRk2g2hctk14bLeR-17" target="96Z2TRk2g2hctk14bLeR-19" edge="1">
          <mxGeometry relative="1" as="geometry" />
        </mxCell>
        <mxCell id="96Z2TRk2g2hctk14bLeR-17" value="MPConv" style="rounded=1;whiteSpace=wrap;html=1;fillColor=#fad9d5;strokeColor=#ae4132;" parent="1" vertex="1">
          <mxGeometry x="36" y="655" width="120" height="20" as="geometry" />
        </mxCell>
        <mxCell id="96Z2TRk2g2hctk14bLeR-45" style="edgeStyle=orthogonalEdgeStyle;rounded=0;orthogonalLoop=1;jettySize=auto;html=1;exitX=0.5;exitY=0;exitDx=0;exitDy=0;entryX=0;entryY=0.5;entryDx=0;entryDy=0;" parent="1" source="96Z2TRk2g2hctk14bLeR-19" target="l5IW7-BxStBXswQpxy_3-5" edge="1">
          <mxGeometry relative="1" as="geometry">
            <mxPoint x="150" y="565" as="targetPoint" />
            <Array as="points">
              <mxPoint x="96" y="565" />
            </Array>
          </mxGeometry>
        </mxCell>
        <mxCell id="96Z2TRk2g2hctk14bLeR-284" value="" style="edgeStyle=orthogonalEdgeStyle;rounded=0;orthogonalLoop=1;jettySize=auto;html=1;fontSize=30;" parent="1" source="96Z2TRk2g2hctk14bLeR-19" target="96Z2TRk2g2hctk14bLeR-281" edge="1">
          <mxGeometry relative="1" as="geometry" />
        </mxCell>
        <mxCell id="96Z2TRk2g2hctk14bLeR-19" value="E-ELAN" style="rounded=1;whiteSpace=wrap;html=1;fillColor=#d5e8d4;strokeColor=#82b366;" parent="1" vertex="1">
          <mxGeometry x="36" y="585" width="120" height="20" as="geometry" />
        </mxCell>
        <mxCell id="96Z2TRk2g2hctk14bLeR-36" style="edgeStyle=orthogonalEdgeStyle;rounded=0;orthogonalLoop=1;jettySize=auto;html=1;exitX=0.5;exitY=0;exitDx=0;exitDy=0;entryX=0;entryY=0.5;entryDx=0;entryDy=0;" parent="1" source="96Z2TRk2g2hctk14bLeR-21" target="96Z2TRk2g2hctk14bLeR-40" edge="1">
          <mxGeometry relative="1" as="geometry">
            <mxPoint x="221" y="410" as="targetPoint" />
          </mxGeometry>
        </mxCell>
        <mxCell id="96Z2TRk2g2hctk14bLeR-41" style="edgeStyle=orthogonalEdgeStyle;rounded=0;orthogonalLoop=1;jettySize=auto;html=1;exitX=0.5;exitY=0;exitDx=0;exitDy=0;entryX=0.5;entryY=1;entryDx=0;entryDy=0;" parent="1" source="96Z2TRk2g2hctk14bLeR-21" target="96Z2TRk2g2hctk14bLeR-23" edge="1">
          <mxGeometry relative="1" as="geometry" />
        </mxCell>
        <mxCell id="96Z2TRk2g2hctk14bLeR-21" value="E-ELAN" style="rounded=1;whiteSpace=wrap;html=1;fillColor=#d5e8d4;strokeColor=#82b366;" parent="1" vertex="1">
          <mxGeometry x="36" y="380" width="120" height="20" as="geometry" />
        </mxCell>
        <mxCell id="96Z2TRk2g2hctk14bLeR-26" style="edgeStyle=orthogonalEdgeStyle;rounded=0;orthogonalLoop=1;jettySize=auto;html=1;exitX=0.5;exitY=0;exitDx=0;exitDy=0;" parent="1" source="96Z2TRk2g2hctk14bLeR-23" target="96Z2TRk2g2hctk14bLeR-25" edge="1">
          <mxGeometry relative="1" as="geometry" />
        </mxCell>
        <mxCell id="96Z2TRk2g2hctk14bLeR-23" value="MPConv" style="rounded=1;whiteSpace=wrap;html=1;fillColor=#fad9d5;strokeColor=#ae4132;" parent="1" vertex="1">
          <mxGeometry x="36" y="290" width="120" height="20" as="geometry" />
        </mxCell>
        <mxCell id="96Z2TRk2g2hctk14bLeR-29" style="edgeStyle=orthogonalEdgeStyle;rounded=0;orthogonalLoop=1;jettySize=auto;html=1;exitX=0.5;exitY=0;exitDx=0;exitDy=0;entryX=0;entryY=0.5;entryDx=0;entryDy=0;" parent="1" source="96Z2TRk2g2hctk14bLeR-25" target="l5IW7-BxStBXswQpxy_3-18" edge="1">
          <mxGeometry relative="1" as="geometry">
            <mxPoint x="311" y="260" as="targetPoint" />
          </mxGeometry>
        </mxCell>
        <mxCell id="96Z2TRk2g2hctk14bLeR-25" value="E-ELAN" style="rounded=1;whiteSpace=wrap;html=1;fillColor=#d5e8d4;strokeColor=#82b366;" parent="1" vertex="1">
          <mxGeometry x="36" y="220" width="120" height="20" as="geometry" />
        </mxCell>
        <mxCell id="96Z2TRk2g2hctk14bLeR-31" style="edgeStyle=orthogonalEdgeStyle;rounded=0;orthogonalLoop=1;jettySize=auto;html=1;exitX=0.5;exitY=1;exitDx=0;exitDy=0;" parent="1" source="96Z2TRk2g2hctk14bLeR-28" target="96Z2TRk2g2hctk14bLeR-30" edge="1">
          <mxGeometry relative="1" as="geometry" />
        </mxCell>
        <mxCell id="b3Fnygi5dWCpyMjXDEdl-87" style="edgeStyle=orthogonalEdgeStyle;rounded=0;orthogonalLoop=1;jettySize=auto;html=1;exitX=1;exitY=0.5;exitDx=0;exitDy=0;entryX=0;entryY=0.5;entryDx=0;entryDy=0;" parent="1" source="96Z2TRk2g2hctk14bLeR-28" target="b3Fnygi5dWCpyMjXDEdl-42" edge="1">
          <mxGeometry relative="1" as="geometry" />
        </mxCell>
        <mxCell id="96Z2TRk2g2hctk14bLeR-28" value="SPPFCSPC" style="rounded=1;whiteSpace=wrap;html=1;fillColor=#ffff88;strokeColor=#36393d;" parent="1" vertex="1">
          <mxGeometry x="251" y="197" width="120" height="20" as="geometry" />
        </mxCell>
        <mxCell id="96Z2TRk2g2hctk14bLeR-30" value="BConv" style="rounded=1;whiteSpace=wrap;html=1;fillColor=#dae8fc;strokeColor=#6c8ebf;" parent="1" vertex="1">
          <mxGeometry x="251" y="250" width="120" height="20" as="geometry" />
        </mxCell>
        <mxCell id="96Z2TRk2g2hctk14bLeR-38" value="" style="edgeStyle=orthogonalEdgeStyle;rounded=0;orthogonalLoop=1;jettySize=auto;html=1;" parent="1" source="96Z2TRk2g2hctk14bLeR-32" target="96Z2TRk2g2hctk14bLeR-37" edge="1">
          <mxGeometry relative="1" as="geometry" />
        </mxCell>
        <mxCell id="96Z2TRk2g2hctk14bLeR-32" value="UPSample" style="rounded=1;whiteSpace=wrap;html=1;fillColor=#99CCFF;" parent="1" vertex="1">
          <mxGeometry x="250" y="300" width="120" height="20" as="geometry" />
        </mxCell>
        <mxCell id="96Z2TRk2g2hctk14bLeR-50" value="" style="edgeStyle=orthogonalEdgeStyle;rounded=0;orthogonalLoop=1;jettySize=auto;html=1;" parent="1" source="96Z2TRk2g2hctk14bLeR-37" target="96Z2TRk2g2hctk14bLeR-49" edge="1">
          <mxGeometry relative="1" as="geometry" />
        </mxCell>
        <mxCell id="96Z2TRk2g2hctk14bLeR-37" value="cat" style="ellipse;whiteSpace=wrap;html=1;rounded=1;fillColor=#fff2cc;strokeColor=#d6b656;" parent="1" vertex="1">
          <mxGeometry x="296" y="335" width="30" height="30" as="geometry" />
        </mxCell>
        <mxCell id="l5IW7-BxStBXswQpxy_3-12" style="edgeStyle=orthogonalEdgeStyle;rounded=0;orthogonalLoop=1;jettySize=auto;html=1;exitX=1;exitY=0.5;exitDx=0;exitDy=0;entryX=0;entryY=0.5;entryDx=0;entryDy=0;" edge="1" parent="1" source="96Z2TRk2g2hctk14bLeR-40" target="96Z2TRk2g2hctk14bLeR-37">
          <mxGeometry relative="1" as="geometry" />
        </mxCell>
        <mxCell id="96Z2TRk2g2hctk14bLeR-40" value="BConv" style="rounded=1;whiteSpace=wrap;html=1;fillColor=#dae8fc;strokeColor=#6c8ebf;" parent="1" vertex="1">
          <mxGeometry x="160" y="340" width="60" height="20" as="geometry" />
        </mxCell>
        <mxCell id="96Z2TRk2g2hctk14bLeR-67" value="" style="edgeStyle=orthogonalEdgeStyle;rounded=0;orthogonalLoop=1;jettySize=auto;html=1;" parent="1" source="96Z2TRk2g2hctk14bLeR-48" target="96Z2TRk2g2hctk14bLeR-66" edge="1">
          <mxGeometry relative="1" as="geometry" />
        </mxCell>
        <mxCell id="96Z2TRk2g2hctk14bLeR-48" value="cat" style="ellipse;whiteSpace=wrap;html=1;rounded=1;fillColor=#fff2cc;strokeColor=#d6b656;" parent="1" vertex="1">
          <mxGeometry x="296" y="550" width="30" height="30" as="geometry" />
        </mxCell>
        <mxCell id="96Z2TRk2g2hctk14bLeR-53" value="" style="edgeStyle=orthogonalEdgeStyle;rounded=0;orthogonalLoop=1;jettySize=auto;html=1;entryX=0.5;entryY=0;entryDx=0;entryDy=0;" parent="1" source="96Z2TRk2g2hctk14bLeR-49" target="96Z2TRk2g2hctk14bLeR-55" edge="1">
          <mxGeometry relative="1" as="geometry">
            <mxPoint x="311" y="430" as="targetPoint" />
          </mxGeometry>
        </mxCell>
        <mxCell id="96Z2TRk2g2hctk14bLeR-49" value="Catconv" style="rounded=1;whiteSpace=wrap;html=1;fillColor=#cdeb8b;strokeColor=#36393d;" parent="1" vertex="1">
          <mxGeometry x="251" y="383" width="120" height="20" as="geometry" />
        </mxCell>
        <mxCell id="b3Fnygi5dWCpyMjXDEdl-38" style="edgeStyle=orthogonalEdgeStyle;rounded=0;orthogonalLoop=1;jettySize=auto;html=1;exitX=1;exitY=0.5;exitDx=0;exitDy=0;entryX=0;entryY=0.5;entryDx=0;entryDy=0;" parent="1" source="96Z2TRk2g2hctk14bLeR-54" target="b3Fnygi5dWCpyMjXDEdl-34" edge="1">
          <mxGeometry relative="1" as="geometry" />
        </mxCell>
        <mxCell id="96Z2TRk2g2hctk14bLeR-54" value="BConv" style="rounded=1;whiteSpace=wrap;html=1;fillColor=#dae8fc;strokeColor=#6c8ebf;" parent="1" vertex="1">
          <mxGeometry x="250.5" y="470" width="120" height="20" as="geometry" />
        </mxCell>
        <mxCell id="96Z2TRk2g2hctk14bLeR-56" style="edgeStyle=orthogonalEdgeStyle;rounded=0;orthogonalLoop=1;jettySize=auto;html=1;exitX=0.5;exitY=1;exitDx=0;exitDy=0;entryX=0.5;entryY=0;entryDx=0;entryDy=0;" parent="1" source="96Z2TRk2g2hctk14bLeR-55" target="96Z2TRk2g2hctk14bLeR-54" edge="1">
          <mxGeometry relative="1" as="geometry" />
        </mxCell>
        <mxCell id="96Z2TRk2g2hctk14bLeR-55" value="BConv" style="rounded=1;whiteSpace=wrap;html=1;fillColor=#dae8fc;strokeColor=#6c8ebf;" parent="1" vertex="1">
          <mxGeometry x="251" y="425" width="120" height="20" as="geometry" />
        </mxCell>
        <mxCell id="a6rZ2WNsQKCH5PQ9cZ_o-20" style="edgeStyle=orthogonalEdgeStyle;rounded=0;orthogonalLoop=1;jettySize=auto;html=1;exitX=0.5;exitY=1;exitDx=0;exitDy=0;entryX=0.5;entryY=0;entryDx=0;entryDy=0;fontFamily=Tahoma;fontSize=6;" parent="1" source="96Z2TRk2g2hctk14bLeR-60" target="96Z2TRk2g2hctk14bLeR-48" edge="1">
          <mxGeometry relative="1" as="geometry" />
        </mxCell>
        <mxCell id="96Z2TRk2g2hctk14bLeR-60" value="UPsample" style="rounded=1;whiteSpace=wrap;html=1;fillColor=#99CCFF;" parent="1" vertex="1">
          <mxGeometry x="251" y="512" width="120" height="20" as="geometry" />
        </mxCell>
        <mxCell id="96Z2TRk2g2hctk14bLeR-69" value="" style="edgeStyle=orthogonalEdgeStyle;rounded=0;orthogonalLoop=1;jettySize=auto;html=1;" parent="1" source="96Z2TRk2g2hctk14bLeR-66" target="96Z2TRk2g2hctk14bLeR-68" edge="1">
          <mxGeometry relative="1" as="geometry" />
        </mxCell>
        <mxCell id="96Z2TRk2g2hctk14bLeR-66" value="Catconv" style="whiteSpace=wrap;html=1;rounded=1;fillColor=#cdeb8b;strokeColor=#36393d;" parent="1" vertex="1">
          <mxGeometry x="251" y="610" width="120" height="20" as="geometry" />
        </mxCell>
        <mxCell id="b3Fnygi5dWCpyMjXDEdl-2" value="" style="edgeStyle=orthogonalEdgeStyle;rounded=0;orthogonalLoop=1;jettySize=auto;html=1;" parent="1" source="96Z2TRk2g2hctk14bLeR-68" target="b3Fnygi5dWCpyMjXDEdl-1" edge="1">
          <mxGeometry relative="1" as="geometry" />
        </mxCell>
        <mxCell id="b3Fnygi5dWCpyMjXDEdl-31" value="" style="edgeStyle=orthogonalEdgeStyle;rounded=0;orthogonalLoop=1;jettySize=auto;html=1;" parent="1" source="96Z2TRk2g2hctk14bLeR-68" target="b3Fnygi5dWCpyMjXDEdl-29" edge="1">
          <mxGeometry relative="1" as="geometry" />
        </mxCell>
        <mxCell id="96Z2TRk2g2hctk14bLeR-68" value="BConv" style="whiteSpace=wrap;html=1;rounded=1;fillColor=#dae8fc;strokeColor=#6c8ebf;" parent="1" vertex="1">
          <mxGeometry x="251" y="670" width="120" height="20" as="geometry" />
        </mxCell>
        <mxCell id="96Z2TRk2g2hctk14bLeR-129" value="" style="endArrow=none;dashed=1;html=1;dashPattern=1 3;strokeWidth=2;rounded=0;" parent="1" edge="1">
          <mxGeometry width="50" height="50" relative="1" as="geometry">
            <mxPoint x="170" y="1360" as="sourcePoint" />
            <mxPoint x="170" y="920" as="targetPoint" />
            <Array as="points">
              <mxPoint x="170" y="1150" />
            </Array>
          </mxGeometry>
        </mxCell>
        <mxCell id="96Z2TRk2g2hctk14bLeR-130" value="" style="endArrow=none;dashed=1;html=1;dashPattern=1 3;strokeWidth=2;rounded=0;" parent="1" edge="1">
          <mxGeometry width="50" height="50" relative="1" as="geometry">
            <mxPoint x="170" y="920" as="sourcePoint" />
            <mxPoint x="827" y="922" as="targetPoint" />
          </mxGeometry>
        </mxCell>
        <mxCell id="96Z2TRk2g2hctk14bLeR-131" value="BConv" style="rounded=1;whiteSpace=wrap;html=1;fillColor=#dae8fc;strokeColor=#6c8ebf;" parent="1" vertex="1">
          <mxGeometry x="172" y="965" width="40" height="20" as="geometry" />
        </mxCell>
        <mxCell id="96Z2TRk2g2hctk14bLeR-132" value="BConv" style="rounded=1;whiteSpace=wrap;html=1;fillColor=#dae8fc;strokeColor=#6c8ebf;" parent="1" vertex="1">
          <mxGeometry x="212" y="965" width="40" height="20" as="geometry" />
        </mxCell>
        <mxCell id="96Z2TRk2g2hctk14bLeR-133" value="BConv" style="rounded=1;whiteSpace=wrap;html=1;fillColor=#dae8fc;strokeColor=#6c8ebf;" parent="1" vertex="1">
          <mxGeometry x="252" y="965" width="40" height="20" as="geometry" />
        </mxCell>
        <mxCell id="96Z2TRk2g2hctk14bLeR-136" value="BConv" style="rounded=1;whiteSpace=wrap;html=1;fillColor=#dae8fc;strokeColor=#6c8ebf;" parent="1" vertex="1">
          <mxGeometry x="328" y="965" width="40" height="20" as="geometry" />
        </mxCell>
        <mxCell id="96Z2TRk2g2hctk14bLeR-137" value="BN" style="rounded=1;whiteSpace=wrap;html=1;fillColor=#ffe6cc;strokeColor=#d79b00;" parent="1" vertex="1">
          <mxGeometry x="368" y="965" width="40" height="20" as="geometry" />
        </mxCell>
        <mxCell id="96Z2TRk2g2hctk14bLeR-138" value="LeakyReLu" style="rounded=1;whiteSpace=wrap;html=1;fillColor=#b0e3e6;strokeColor=#0e8088;" parent="1" vertex="1">
          <mxGeometry x="408" y="965" width="70" height="20" as="geometry" />
        </mxCell>
        <mxCell id="96Z2TRk2g2hctk14bLeR-142" value="E-ELAN" style="rounded=1;whiteSpace=wrap;html=1;fillColor=#d5e8d4;strokeColor=#82b366;" parent="1" vertex="1">
          <mxGeometry x="171" y="1065.03" width="50" height="20" as="geometry" />
        </mxCell>
        <mxCell id="96Z2TRk2g2hctk14bLeR-143" value="BConv" style="rounded=1;whiteSpace=wrap;html=1;fillColor=#dae8fc;strokeColor=#6c8ebf;" parent="1" vertex="1">
          <mxGeometry x="267" y="1065.03" width="40" height="20" as="geometry" />
        </mxCell>
        <mxCell id="96Z2TRk2g2hctk14bLeR-145" value="BConv" style="rounded=1;whiteSpace=wrap;html=1;fillColor=#dae8fc;strokeColor=#6c8ebf;" parent="1" vertex="1">
          <mxGeometry x="526" y="1065.03" width="40" height="20" as="geometry" />
        </mxCell>
        <mxCell id="96Z2TRk2g2hctk14bLeR-159" style="edgeStyle=orthogonalEdgeStyle;rounded=0;orthogonalLoop=1;jettySize=auto;html=1;exitX=1;exitY=0.5;exitDx=0;exitDy=0;entryX=0.5;entryY=0;entryDx=0;entryDy=0;" parent="1" source="96Z2TRk2g2hctk14bLeR-146" target="96Z2TRk2g2hctk14bLeR-156" edge="1">
          <mxGeometry relative="1" as="geometry" />
        </mxCell>
        <mxCell id="96Z2TRk2g2hctk14bLeR-146" value="BConv" style="rounded=1;whiteSpace=wrap;html=1;fillColor=#dae8fc;strokeColor=#6c8ebf;" parent="1" vertex="1">
          <mxGeometry x="322" y="1025.03" width="40" height="20" as="geometry" />
        </mxCell>
        <mxCell id="96Z2TRk2g2hctk14bLeR-157" style="edgeStyle=orthogonalEdgeStyle;rounded=0;orthogonalLoop=1;jettySize=auto;html=1;exitX=1;exitY=0.5;exitDx=0;exitDy=0;entryX=0;entryY=0.5;entryDx=0;entryDy=0;" parent="1" source="96Z2TRk2g2hctk14bLeR-147" target="96Z2TRk2g2hctk14bLeR-156" edge="1">
          <mxGeometry relative="1" as="geometry" />
        </mxCell>
        <mxCell id="96Z2TRk2g2hctk14bLeR-147" value="BConv" style="rounded=1;whiteSpace=wrap;html=1;fillColor=#dae8fc;strokeColor=#6c8ebf;" parent="1" vertex="1">
          <mxGeometry x="426" y="1065.03" width="40" height="20" as="geometry" />
        </mxCell>
        <mxCell id="96Z2TRk2g2hctk14bLeR-162" style="edgeStyle=orthogonalEdgeStyle;rounded=0;orthogonalLoop=1;jettySize=auto;html=1;exitX=0;exitY=0.5;exitDx=0;exitDy=0;entryX=0.5;entryY=1;entryDx=0;entryDy=0;" parent="1" source="96Z2TRk2g2hctk14bLeR-148" target="96Z2TRk2g2hctk14bLeR-156" edge="1">
          <mxGeometry relative="1" as="geometry">
            <mxPoint x="386" y="1105.03" as="targetPoint" />
            <Array as="points">
              <mxPoint x="386" y="1110.03" />
              <mxPoint x="497" y="1110.03" />
            </Array>
          </mxGeometry>
        </mxCell>
        <mxCell id="96Z2TRk2g2hctk14bLeR-148" value="BConv" style="rounded=1;whiteSpace=wrap;html=1;fillColor=#dae8fc;strokeColor=#6c8ebf;" parent="1" vertex="1">
          <mxGeometry x="386" y="1065.03" width="40" height="20" as="geometry" />
        </mxCell>
        <mxCell id="96Z2TRk2g2hctk14bLeR-149" value="BConv" style="rounded=1;whiteSpace=wrap;html=1;fillColor=#dae8fc;strokeColor=#6c8ebf;" parent="1" vertex="1">
          <mxGeometry x="346" y="1065.03" width="40" height="20" as="geometry" />
        </mxCell>
        <mxCell id="96Z2TRk2g2hctk14bLeR-160" style="edgeStyle=orthogonalEdgeStyle;rounded=0;orthogonalLoop=1;jettySize=auto;html=1;exitX=0;exitY=0.5;exitDx=0;exitDy=0;entryX=0.5;entryY=1;entryDx=0;entryDy=0;" parent="1" source="96Z2TRk2g2hctk14bLeR-150" target="96Z2TRk2g2hctk14bLeR-156" edge="1">
          <mxGeometry relative="1" as="geometry">
            <Array as="points">
              <mxPoint x="306" y="1110.03" />
              <mxPoint x="497" y="1110.03" />
            </Array>
          </mxGeometry>
        </mxCell>
        <mxCell id="96Z2TRk2g2hctk14bLeR-150" value="BConv" style="rounded=1;whiteSpace=wrap;html=1;fillColor=#dae8fc;strokeColor=#6c8ebf;" parent="1" vertex="1">
          <mxGeometry x="306" y="1065.03" width="40" height="20" as="geometry" />
        </mxCell>
        <mxCell id="96Z2TRk2g2hctk14bLeR-158" style="edgeStyle=orthogonalEdgeStyle;rounded=0;orthogonalLoop=1;jettySize=auto;html=1;exitX=1;exitY=0.5;exitDx=0;exitDy=0;entryX=0;entryY=0.5;entryDx=0;entryDy=0;" parent="1" source="96Z2TRk2g2hctk14bLeR-156" target="96Z2TRk2g2hctk14bLeR-145" edge="1">
          <mxGeometry relative="1" as="geometry" />
        </mxCell>
        <mxCell id="96Z2TRk2g2hctk14bLeR-156" value="cat" style="ellipse;whiteSpace=wrap;html=1;rounded=1;" parent="1" vertex="1">
          <mxGeometry x="482" y="1060.03" width="30" height="30" as="geometry" />
        </mxCell>
        <mxCell id="96Z2TRk2g2hctk14bLeR-181" value="Catconv" style="rounded=1;whiteSpace=wrap;html=1;fillColor=#cdeb8b;strokeColor=#36393d;" parent="1" vertex="1">
          <mxGeometry x="171" y="1172.5" width="50" height="20" as="geometry" />
        </mxCell>
        <mxCell id="96Z2TRk2g2hctk14bLeR-182" value="BConv" style="rounded=1;whiteSpace=wrap;html=1;fillColor=#dae8fc;strokeColor=#6c8ebf;" parent="1" vertex="1">
          <mxGeometry x="262" y="1172.5" width="39" height="20" as="geometry" />
        </mxCell>
        <mxCell id="96Z2TRk2g2hctk14bLeR-184" style="edgeStyle=orthogonalEdgeStyle;rounded=0;orthogonalLoop=1;jettySize=auto;html=1;exitX=1;exitY=0.5;exitDx=0;exitDy=0;entryX=0.5;entryY=0;entryDx=0;entryDy=0;" parent="1" source="96Z2TRk2g2hctk14bLeR-185" target="96Z2TRk2g2hctk14bLeR-194" edge="1">
          <mxGeometry relative="1" as="geometry" />
        </mxCell>
        <mxCell id="96Z2TRk2g2hctk14bLeR-185" value="BConv" style="rounded=1;whiteSpace=wrap;html=1;fillColor=#dae8fc;strokeColor=#6c8ebf;" parent="1" vertex="1">
          <mxGeometry x="317" y="1132.5" width="40" height="20" as="geometry" />
        </mxCell>
        <mxCell id="96Z2TRk2g2hctk14bLeR-186" style="edgeStyle=orthogonalEdgeStyle;rounded=0;orthogonalLoop=1;jettySize=auto;html=1;exitX=1;exitY=0.5;exitDx=0;exitDy=0;entryX=0;entryY=0.5;entryDx=0;entryDy=0;" parent="1" source="96Z2TRk2g2hctk14bLeR-187" target="96Z2TRk2g2hctk14bLeR-194" edge="1">
          <mxGeometry relative="1" as="geometry" />
        </mxCell>
        <mxCell id="96Z2TRk2g2hctk14bLeR-187" value="BConv" style="rounded=1;whiteSpace=wrap;html=1;fillColor=#dae8fc;strokeColor=#6c8ebf;" parent="1" vertex="1">
          <mxGeometry x="421" y="1172.5" width="40" height="20" as="geometry" />
        </mxCell>
        <mxCell id="96Z2TRk2g2hctk14bLeR-188" style="edgeStyle=orthogonalEdgeStyle;rounded=0;orthogonalLoop=1;jettySize=auto;html=1;exitX=0;exitY=0.5;exitDx=0;exitDy=0;entryX=0.5;entryY=1;entryDx=0;entryDy=0;" parent="1" source="96Z2TRk2g2hctk14bLeR-189" target="96Z2TRk2g2hctk14bLeR-194" edge="1">
          <mxGeometry relative="1" as="geometry">
            <mxPoint x="381" y="1212.5" as="targetPoint" />
            <Array as="points">
              <mxPoint x="381" y="1217.5" />
              <mxPoint x="492" y="1217.5" />
            </Array>
          </mxGeometry>
        </mxCell>
        <mxCell id="96Z2TRk2g2hctk14bLeR-189" value="BConv" style="rounded=1;whiteSpace=wrap;html=1;fillColor=#dae8fc;strokeColor=#6c8ebf;" parent="1" vertex="1">
          <mxGeometry x="381" y="1172.5" width="40" height="20" as="geometry" />
        </mxCell>
        <mxCell id="96Z2TRk2g2hctk14bLeR-190" value="BConv" style="rounded=1;whiteSpace=wrap;html=1;fillColor=#dae8fc;strokeColor=#6c8ebf;" parent="1" vertex="1">
          <mxGeometry x="341" y="1172.5" width="40" height="20" as="geometry" />
        </mxCell>
        <mxCell id="96Z2TRk2g2hctk14bLeR-191" style="edgeStyle=orthogonalEdgeStyle;rounded=0;orthogonalLoop=1;jettySize=auto;html=1;exitX=0;exitY=0.5;exitDx=0;exitDy=0;entryX=0.5;entryY=1;entryDx=0;entryDy=0;" parent="1" source="96Z2TRk2g2hctk14bLeR-192" target="96Z2TRk2g2hctk14bLeR-194" edge="1">
          <mxGeometry relative="1" as="geometry">
            <Array as="points">
              <mxPoint x="301" y="1217.5" />
              <mxPoint x="492" y="1217.5" />
            </Array>
          </mxGeometry>
        </mxCell>
        <mxCell id="96Z2TRk2g2hctk14bLeR-192" value="&lt;p style=&quot;line-height: 120%;&quot;&gt;BConv&lt;br&gt;&lt;/p&gt;" style="rounded=1;whiteSpace=wrap;html=1;fillColor=#dae8fc;strokeColor=#6c8ebf;" parent="1" vertex="1">
          <mxGeometry x="301" y="1172.5" width="40" height="20" as="geometry" />
        </mxCell>
        <mxCell id="96Z2TRk2g2hctk14bLeR-193" style="edgeStyle=orthogonalEdgeStyle;rounded=0;orthogonalLoop=1;jettySize=auto;html=1;exitX=1;exitY=0.5;exitDx=0;exitDy=0;entryX=0;entryY=0.5;entryDx=0;entryDy=0;" parent="1" source="96Z2TRk2g2hctk14bLeR-194" edge="1">
          <mxGeometry relative="1" as="geometry">
            <mxPoint x="521" y="1182.4999999999998" as="targetPoint" />
          </mxGeometry>
        </mxCell>
        <mxCell id="96Z2TRk2g2hctk14bLeR-194" value="cat" style="ellipse;whiteSpace=wrap;html=1;rounded=1;" parent="1" vertex="1">
          <mxGeometry x="477" y="1167.5" width="30" height="30" as="geometry" />
        </mxCell>
        <mxCell id="96Z2TRk2g2hctk14bLeR-197" value="MPConv" style="rounded=1;whiteSpace=wrap;html=1;" parent="1" vertex="1">
          <mxGeometry x="531" y="1172.5" width="50" height="20" as="geometry" />
        </mxCell>
        <mxCell id="96Z2TRk2g2hctk14bLeR-198" value="BConv" style="rounded=1;whiteSpace=wrap;html=1;fillColor=#dae8fc;strokeColor=#6c8ebf;" parent="1" vertex="1">
          <mxGeometry x="633" y="1210" width="40" height="20" as="geometry" />
        </mxCell>
        <mxCell id="96Z2TRk2g2hctk14bLeR-200" value="Maxpooling" style="rounded=1;whiteSpace=wrap;html=1;fillColor=#bac8d3;strokeColor=#23445d;" parent="1" vertex="1">
          <mxGeometry x="633" y="1130" width="74" height="20" as="geometry" />
        </mxCell>
        <mxCell id="96Z2TRk2g2hctk14bLeR-222" style="edgeStyle=orthogonalEdgeStyle;rounded=0;orthogonalLoop=1;jettySize=auto;html=1;exitX=1;exitY=0.5;exitDx=0;exitDy=0;entryX=0.5;entryY=1;entryDx=0;entryDy=0;" parent="1" source="96Z2TRk2g2hctk14bLeR-207" target="96Z2TRk2g2hctk14bLeR-218" edge="1">
          <mxGeometry relative="1" as="geometry" />
        </mxCell>
        <mxCell id="96Z2TRk2g2hctk14bLeR-207" value="BConv" style="rounded=1;whiteSpace=wrap;html=1;fillColor=#dae8fc;strokeColor=#6c8ebf;" parent="1" vertex="1">
          <mxGeometry x="673" y="1210" width="40" height="20" as="geometry" />
        </mxCell>
        <mxCell id="96Z2TRk2g2hctk14bLeR-219" style="edgeStyle=orthogonalEdgeStyle;rounded=0;orthogonalLoop=1;jettySize=auto;html=1;exitX=1;exitY=0.5;exitDx=0;exitDy=0;entryX=0.5;entryY=0;entryDx=0;entryDy=0;" parent="1" source="96Z2TRk2g2hctk14bLeR-202" target="96Z2TRk2g2hctk14bLeR-218" edge="1">
          <mxGeometry relative="1" as="geometry" />
        </mxCell>
        <mxCell id="96Z2TRk2g2hctk14bLeR-202" value="BConv" style="rounded=1;whiteSpace=wrap;html=1;fillColor=#dae8fc;strokeColor=#6c8ebf;" parent="1" vertex="1">
          <mxGeometry x="707" y="1130" width="40" height="20" as="geometry" />
        </mxCell>
        <mxCell id="96Z2TRk2g2hctk14bLeR-218" value="cat" style="ellipse;whiteSpace=wrap;html=1;rounded=1;" parent="1" vertex="1">
          <mxGeometry x="747" y="1167.5" width="30" height="30" as="geometry" />
        </mxCell>
        <mxCell id="96Z2TRk2g2hctk14bLeR-230" value="SPPFCSPC" style="rounded=1;whiteSpace=wrap;html=1;fillColor=#ffff88;strokeColor=#36393d;" parent="1" vertex="1">
          <mxGeometry x="172" y="1273.74" width="63.5" height="20" as="geometry" />
        </mxCell>
        <mxCell id="KWhuUIyhuwhSW9V_fMmg-23" style="edgeStyle=orthogonalEdgeStyle;rounded=0;orthogonalLoop=1;jettySize=auto;html=1;exitX=1;exitY=0.5;exitDx=0;exitDy=0;entryX=0.5;entryY=1;entryDx=0;entryDy=0;" parent="1" source="l5IW7-BxStBXswQpxy_3-25" target="l5IW7-BxStBXswQpxy_3-43" edge="1">
          <mxGeometry relative="1" as="geometry">
            <mxPoint x="685" y="1298.74" as="targetPoint" />
            <mxPoint x="444" y="1350" as="sourcePoint" />
          </mxGeometry>
        </mxCell>
        <mxCell id="96Z2TRk2g2hctk14bLeR-280" value="=" style="text;html=1;strokeColor=none;fillColor=none;align=center;verticalAlign=middle;whiteSpace=wrap;rounded=0;strokeWidth=1;fontSize=30;" parent="1" vertex="1">
          <mxGeometry x="295" y="960" width="27" height="30" as="geometry" />
        </mxCell>
        <mxCell id="96Z2TRk2g2hctk14bLeR-285" value="" style="edgeStyle=orthogonalEdgeStyle;rounded=0;orthogonalLoop=1;jettySize=auto;html=1;fontSize=30;" parent="1" source="96Z2TRk2g2hctk14bLeR-281" target="96Z2TRk2g2hctk14bLeR-21" edge="1">
          <mxGeometry relative="1" as="geometry" />
        </mxCell>
        <mxCell id="96Z2TRk2g2hctk14bLeR-281" value="MPConv" style="rounded=1;whiteSpace=wrap;html=1;fillColor=#fad9d5;strokeColor=#ae4132;" parent="1" vertex="1">
          <mxGeometry x="36" y="465" width="120" height="20" as="geometry" />
        </mxCell>
        <mxCell id="96Z2TRk2g2hctk14bLeR-288" style="edgeStyle=orthogonalEdgeStyle;rounded=0;orthogonalLoop=1;jettySize=auto;html=1;exitX=1;exitY=0.5;exitDx=0;exitDy=0;entryX=0;entryY=0.5;entryDx=0;entryDy=0;fontSize=30;" parent="1" source="96Z2TRk2g2hctk14bLeR-286" target="96Z2TRk2g2hctk14bLeR-143" edge="1">
          <mxGeometry relative="1" as="geometry" />
        </mxCell>
        <mxCell id="96Z2TRk2g2hctk14bLeR-289" style="edgeStyle=orthogonalEdgeStyle;rounded=0;orthogonalLoop=1;jettySize=auto;html=1;exitX=1;exitY=0.5;exitDx=0;exitDy=0;entryX=0;entryY=0.5;entryDx=0;entryDy=0;fontSize=30;" parent="1" source="96Z2TRk2g2hctk14bLeR-286" target="96Z2TRk2g2hctk14bLeR-146" edge="1">
          <mxGeometry relative="1" as="geometry">
            <Array as="points">
              <mxPoint x="256" y="1075.03" />
              <mxPoint x="256" y="1035.03" />
            </Array>
          </mxGeometry>
        </mxCell>
        <mxCell id="96Z2TRk2g2hctk14bLeR-286" value="=" style="text;html=1;strokeColor=none;fillColor=none;align=center;verticalAlign=middle;whiteSpace=wrap;rounded=0;strokeWidth=1;fontSize=30;" parent="1" vertex="1">
          <mxGeometry x="220" y="1060.03" width="27" height="30" as="geometry" />
        </mxCell>
        <mxCell id="96Z2TRk2g2hctk14bLeR-291" style="edgeStyle=orthogonalEdgeStyle;rounded=0;orthogonalLoop=1;jettySize=auto;html=1;exitX=1;exitY=0.5;exitDx=0;exitDy=0;entryX=0;entryY=0.5;entryDx=0;entryDy=0;fontSize=30;" parent="1" source="96Z2TRk2g2hctk14bLeR-290" target="96Z2TRk2g2hctk14bLeR-182" edge="1">
          <mxGeometry relative="1" as="geometry" />
        </mxCell>
        <mxCell id="96Z2TRk2g2hctk14bLeR-292" style="edgeStyle=orthogonalEdgeStyle;rounded=0;orthogonalLoop=1;jettySize=auto;html=1;exitX=1;exitY=0.5;exitDx=0;exitDy=0;entryX=0;entryY=0.5;entryDx=0;entryDy=0;fontSize=30;" parent="1" source="96Z2TRk2g2hctk14bLeR-290" target="96Z2TRk2g2hctk14bLeR-185" edge="1">
          <mxGeometry relative="1" as="geometry">
            <Array as="points">
              <mxPoint x="251" y="1182.5" />
              <mxPoint x="251" y="1142.5" />
            </Array>
          </mxGeometry>
        </mxCell>
        <mxCell id="96Z2TRk2g2hctk14bLeR-290" value="=" style="text;html=1;strokeColor=none;fillColor=none;align=center;verticalAlign=middle;whiteSpace=wrap;rounded=0;strokeWidth=1;fontSize=30;" parent="1" vertex="1">
          <mxGeometry x="217.5" y="1167.5" width="27" height="30" as="geometry" />
        </mxCell>
        <mxCell id="96Z2TRk2g2hctk14bLeR-296" style="edgeStyle=orthogonalEdgeStyle;rounded=0;orthogonalLoop=1;jettySize=auto;html=1;fontSize=30;exitX=0;exitY=0.5;exitDx=0;exitDy=0;entryX=0;entryY=0.5;entryDx=0;entryDy=0;" parent="1" source="l5IW7-BxStBXswQpxy_3-28" target="l5IW7-BxStBXswQpxy_3-25" edge="1">
          <mxGeometry relative="1" as="geometry">
            <Array as="points">
              <mxPoint x="264" y="1284" />
              <mxPoint x="264" y="1350" />
            </Array>
            <mxPoint x="290" y="1283.7400000000002" as="sourcePoint" />
            <mxPoint x="412.25" y="1350" as="targetPoint" />
          </mxGeometry>
        </mxCell>
        <mxCell id="KWhuUIyhuwhSW9V_fMmg-24" style="edgeStyle=orthogonalEdgeStyle;rounded=0;orthogonalLoop=1;jettySize=auto;html=1;entryX=0;entryY=0.5;entryDx=0;entryDy=0;" parent="1" target="l5IW7-BxStBXswQpxy_3-28" edge="1">
          <mxGeometry relative="1" as="geometry">
            <mxPoint x="264" y="1284" as="sourcePoint" />
            <mxPoint x="290" y="1283.7400000000002" as="targetPoint" />
          </mxGeometry>
        </mxCell>
        <mxCell id="96Z2TRk2g2hctk14bLeR-293" value="=" style="text;html=1;strokeColor=none;fillColor=none;align=center;verticalAlign=middle;whiteSpace=wrap;rounded=0;strokeWidth=1;fontSize=30;" parent="1" vertex="1">
          <mxGeometry x="233" y="1269.38" width="27" height="30" as="geometry" />
        </mxCell>
        <mxCell id="96Z2TRk2g2hctk14bLeR-298" style="edgeStyle=orthogonalEdgeStyle;rounded=0;orthogonalLoop=1;jettySize=auto;html=1;exitX=1;exitY=0.5;exitDx=0;exitDy=0;entryX=0;entryY=0.5;entryDx=0;entryDy=0;fontSize=30;" parent="1" source="96Z2TRk2g2hctk14bLeR-297" target="96Z2TRk2g2hctk14bLeR-200" edge="1">
          <mxGeometry relative="1" as="geometry">
            <Array as="points">
              <mxPoint x="621" y="1183" />
              <mxPoint x="621" y="1140" />
            </Array>
          </mxGeometry>
        </mxCell>
        <mxCell id="96Z2TRk2g2hctk14bLeR-300" style="edgeStyle=orthogonalEdgeStyle;rounded=0;orthogonalLoop=1;jettySize=auto;html=1;exitX=1;exitY=0.5;exitDx=0;exitDy=0;entryX=0;entryY=0.5;entryDx=0;entryDy=0;fontSize=30;" parent="1" source="96Z2TRk2g2hctk14bLeR-297" target="96Z2TRk2g2hctk14bLeR-198" edge="1">
          <mxGeometry relative="1" as="geometry">
            <Array as="points">
              <mxPoint x="621" y="1182" />
              <mxPoint x="621" y="1220" />
            </Array>
          </mxGeometry>
        </mxCell>
        <mxCell id="96Z2TRk2g2hctk14bLeR-297" value="=" style="text;html=1;strokeColor=none;fillColor=none;align=center;verticalAlign=middle;whiteSpace=wrap;rounded=0;strokeWidth=1;fontSize=30;" parent="1" vertex="1">
          <mxGeometry x="581" y="1167.5" width="27" height="30" as="geometry" />
        </mxCell>
        <mxCell id="96Z2TRk2g2hctk14bLeR-301" value="REP" style="rounded=1;whiteSpace=wrap;html=1;fillColor=#fad7ac;strokeColor=#b46504;" parent="1" vertex="1">
          <mxGeometry x="608" y="1065.03" width="40" height="20" as="geometry" />
        </mxCell>
        <mxCell id="96Z2TRk2g2hctk14bLeR-302" value="Conv" style="rounded=1;whiteSpace=wrap;html=1;fillColor=#eeeeee;strokeColor=#36393d;" parent="1" vertex="1">
          <mxGeometry x="681" y="1065.03" width="40" height="20" as="geometry" />
        </mxCell>
        <mxCell id="96Z2TRk2g2hctk14bLeR-303" value="BN" style="rounded=1;whiteSpace=wrap;html=1;fillColor=#ffe6cc;strokeColor=#d79b00;" parent="1" vertex="1">
          <mxGeometry x="721" y="1065.03" width="40" height="20" as="geometry" />
        </mxCell>
        <mxCell id="96Z2TRk2g2hctk14bLeR-304" value="=" style="text;html=1;strokeColor=none;fillColor=none;align=center;verticalAlign=middle;whiteSpace=wrap;rounded=0;strokeWidth=1;fontSize=30;" parent="1" vertex="1">
          <mxGeometry x="652" y="1060.03" width="27" height="30" as="geometry" />
        </mxCell>
        <mxCell id="96Z2TRk2g2hctk14bLeR-305" value="deploy" style="text;html=1;strokeColor=none;fillColor=none;align=center;verticalAlign=middle;whiteSpace=wrap;rounded=0;strokeWidth=1;fontSize=12;" parent="1" vertex="1">
          <mxGeometry x="608" y="1035.03" width="39" height="30" as="geometry" />
        </mxCell>
        <mxCell id="96Z2TRk2g2hctk14bLeR-311" value="REP" style="rounded=1;whiteSpace=wrap;html=1;fillColor=#fad7ac;strokeColor=#b46504;" parent="1" vertex="1">
          <mxGeometry x="576.5" y="970" width="40" height="20" as="geometry" />
        </mxCell>
        <mxCell id="96Z2TRk2g2hctk14bLeR-312" value="Conv" style="rounded=1;whiteSpace=wrap;html=1;fillColor=#eeeeee;strokeColor=#36393d;" parent="1" vertex="1">
          <mxGeometry x="661" y="970" width="40" height="20" as="geometry" />
        </mxCell>
        <mxCell id="96Z2TRk2g2hctk14bLeR-322" style="edgeStyle=orthogonalEdgeStyle;rounded=0;orthogonalLoop=1;jettySize=auto;html=1;exitX=1;exitY=0.5;exitDx=0;exitDy=0;entryX=0;entryY=0.5;entryDx=0;entryDy=0;fontSize=10;" parent="1" source="96Z2TRk2g2hctk14bLeR-313" target="96Z2TRk2g2hctk14bLeR-321" edge="1">
          <mxGeometry relative="1" as="geometry" />
        </mxCell>
        <mxCell id="96Z2TRk2g2hctk14bLeR-313" value="BN" style="rounded=1;whiteSpace=wrap;html=1;fillColor=#ffe6cc;strokeColor=#d79b00;" parent="1" vertex="1">
          <mxGeometry x="701" y="970" width="40" height="20" as="geometry" />
        </mxCell>
        <mxCell id="96Z2TRk2g2hctk14bLeR-314" value="train" style="text;html=1;strokeColor=none;fillColor=none;align=center;verticalAlign=middle;whiteSpace=wrap;rounded=0;strokeWidth=1;fontSize=12;" parent="1" vertex="1">
          <mxGeometry x="576.5" y="940" width="39" height="30" as="geometry" />
        </mxCell>
        <mxCell id="96Z2TRk2g2hctk14bLeR-315" value="=" style="text;html=1;strokeColor=none;fillColor=none;align=center;verticalAlign=middle;whiteSpace=wrap;rounded=0;strokeWidth=1;fontSize=30;" parent="1" vertex="1">
          <mxGeometry x="616.5" y="965" width="27" height="30" as="geometry" />
        </mxCell>
        <mxCell id="96Z2TRk2g2hctk14bLeR-318" value="Conv" style="rounded=1;whiteSpace=wrap;html=1;fillColor=#eeeeee;strokeColor=#36393d;" parent="1" vertex="1">
          <mxGeometry x="661" y="930" width="40" height="20" as="geometry" />
        </mxCell>
        <mxCell id="96Z2TRk2g2hctk14bLeR-319" value="BN" style="rounded=1;whiteSpace=wrap;html=1;fillColor=#ffe6cc;strokeColor=#d79b00;" parent="1" vertex="1">
          <mxGeometry x="701" y="930" width="40" height="20" as="geometry" />
        </mxCell>
        <mxCell id="96Z2TRk2g2hctk14bLeR-321" value="add" style="ellipse;whiteSpace=wrap;html=1;rounded=1;" parent="1" vertex="1">
          <mxGeometry x="757" y="965" width="30" height="30" as="geometry" />
        </mxCell>
        <mxCell id="96Z2TRk2g2hctk14bLeR-323" value="BN" style="rounded=1;whiteSpace=wrap;html=1;fillColor=#ffe6cc;strokeColor=#d79b00;" parent="1" vertex="1">
          <mxGeometry x="682" y="1010" width="40" height="20" as="geometry" />
        </mxCell>
        <mxCell id="96Z2TRk2g2hctk14bLeR-324" value="" style="endArrow=classic;html=1;rounded=0;fontSize=10;entryX=0;entryY=0.5;entryDx=0;entryDy=0;exitX=1;exitY=0.5;exitDx=0;exitDy=0;" parent="1" source="96Z2TRk2g2hctk14bLeR-315" target="96Z2TRk2g2hctk14bLeR-318" edge="1">
          <mxGeometry width="50" height="50" relative="1" as="geometry">
            <mxPoint x="642" y="980" as="sourcePoint" />
            <mxPoint x="692" y="930" as="targetPoint" />
          </mxGeometry>
        </mxCell>
        <mxCell id="96Z2TRk2g2hctk14bLeR-325" value="" style="endArrow=classic;html=1;rounded=0;fontSize=10;entryX=0;entryY=0.5;entryDx=0;entryDy=0;exitX=1;exitY=0.5;exitDx=0;exitDy=0;" parent="1" source="96Z2TRk2g2hctk14bLeR-315" target="96Z2TRk2g2hctk14bLeR-312" edge="1">
          <mxGeometry width="50" height="50" relative="1" as="geometry">
            <mxPoint x="641" y="980" as="sourcePoint" />
            <mxPoint x="671" y="950" as="targetPoint" />
          </mxGeometry>
        </mxCell>
        <mxCell id="96Z2TRk2g2hctk14bLeR-326" value="" style="endArrow=none;dashed=1;html=1;dashPattern=1 3;strokeWidth=2;rounded=0;fontSize=10;edgeStyle=orthogonalEdgeStyle;curved=1;exitX=1;exitY=0.5;exitDx=0;exitDy=0;entryX=0;entryY=0.5;entryDx=0;entryDy=0;" parent="1" source="96Z2TRk2g2hctk14bLeR-315" target="96Z2TRk2g2hctk14bLeR-323" edge="1">
          <mxGeometry width="50" height="50" relative="1" as="geometry">
            <mxPoint x="651" y="1010" as="sourcePoint" />
            <mxPoint x="711" y="990" as="targetPoint" />
          </mxGeometry>
        </mxCell>
        <mxCell id="96Z2TRk2g2hctk14bLeR-329" value="" style="endArrow=none;dashed=1;html=1;dashPattern=1 3;strokeWidth=2;rounded=0;fontSize=10;exitX=1;exitY=0.5;exitDx=0;exitDy=0;entryX=0;entryY=0.5;entryDx=0;entryDy=0;edgeStyle=orthogonalEdgeStyle;curved=1;" parent="1" source="96Z2TRk2g2hctk14bLeR-323" target="96Z2TRk2g2hctk14bLeR-321" edge="1">
          <mxGeometry width="50" height="50" relative="1" as="geometry">
            <mxPoint x="731" y="1045" as="sourcePoint" />
            <mxPoint x="781" y="995" as="targetPoint" />
          </mxGeometry>
        </mxCell>
        <mxCell id="96Z2TRk2g2hctk14bLeR-330" value="" style="endArrow=classic;html=1;rounded=0;fontSize=10;entryX=0;entryY=0.5;entryDx=0;entryDy=0;exitX=1;exitY=0.5;exitDx=0;exitDy=0;" parent="1" source="96Z2TRk2g2hctk14bLeR-319" target="96Z2TRk2g2hctk14bLeR-321" edge="1">
          <mxGeometry width="50" height="50" relative="1" as="geometry">
            <mxPoint x="653.5" y="990" as="sourcePoint" />
            <mxPoint x="671" y="950" as="targetPoint" />
          </mxGeometry>
        </mxCell>
        <mxCell id="96Z2TRk2g2hctk14bLeR-331" value="640*640*3" style="text;html=1;strokeColor=none;fillColor=none;align=center;verticalAlign=middle;whiteSpace=wrap;rounded=0;strokeWidth=1;fontSize=12;" parent="1" vertex="1">
          <mxGeometry x="61" y="1330" width="60" height="30" as="geometry" />
        </mxCell>
        <mxCell id="96Z2TRk2g2hctk14bLeR-332" value="640*640*32" style="text;html=1;strokeColor=none;fillColor=none;align=center;verticalAlign=middle;whiteSpace=wrap;rounded=0;strokeWidth=1;fontSize=12;" parent="1" vertex="1">
          <mxGeometry x="100" y="1030.03" width="59" height="30" as="geometry" />
        </mxCell>
        <mxCell id="96Z2TRk2g2hctk14bLeR-333" value="320*320*64" style="text;html=1;strokeColor=none;fillColor=none;align=center;verticalAlign=middle;whiteSpace=wrap;rounded=0;strokeWidth=1;fontSize=12;" parent="1" vertex="1">
          <mxGeometry x="100" y="965" width="60" height="30" as="geometry" />
        </mxCell>
        <mxCell id="96Z2TRk2g2hctk14bLeR-334" value="320*320*64" style="text;html=1;strokeColor=none;fillColor=none;align=center;verticalAlign=middle;whiteSpace=wrap;rounded=0;strokeWidth=1;fontSize=12;" parent="1" vertex="1">
          <mxGeometry x="102" y="900" width="60" height="30" as="geometry" />
        </mxCell>
        <mxCell id="96Z2TRk2g2hctk14bLeR-335" value="160*160*128" style="text;html=1;strokeColor=none;fillColor=none;align=center;verticalAlign=middle;whiteSpace=wrap;rounded=0;strokeWidth=1;fontSize=12;" parent="1" vertex="1">
          <mxGeometry x="102" y="840" width="60" height="30" as="geometry" />
        </mxCell>
        <mxCell id="96Z2TRk2g2hctk14bLeR-336" value="160*160*256" style="text;html=1;strokeColor=none;fillColor=none;align=center;verticalAlign=middle;whiteSpace=wrap;rounded=0;strokeWidth=1;fontSize=12;" parent="1" vertex="1">
          <mxGeometry x="102" y="775" width="60" height="30" as="geometry" />
        </mxCell>
        <mxCell id="96Z2TRk2g2hctk14bLeR-337" value="80*80*256" style="text;html=1;strokeColor=none;fillColor=none;align=center;verticalAlign=middle;whiteSpace=wrap;rounded=0;strokeWidth=1;fontSize=12;" parent="1" vertex="1">
          <mxGeometry x="102" y="607.5" width="60" height="30" as="geometry" />
        </mxCell>
        <mxCell id="96Z2TRk2g2hctk14bLeR-341" value="80*80*512" style="text;html=1;strokeColor=none;fillColor=none;align=center;verticalAlign=middle;whiteSpace=wrap;rounded=0;strokeWidth=1;fontSize=12;" parent="1" vertex="1">
          <mxGeometry x="96" y="532" width="60" height="30" as="geometry" />
        </mxCell>
        <mxCell id="96Z2TRk2g2hctk14bLeR-342" value="40*40*512" style="text;html=1;strokeColor=none;fillColor=none;align=center;verticalAlign=middle;whiteSpace=wrap;rounded=0;strokeWidth=1;fontSize=12;" parent="1" vertex="1">
          <mxGeometry x="96" y="420" width="60" height="30" as="geometry" />
        </mxCell>
        <mxCell id="96Z2TRk2g2hctk14bLeR-343" value="40*40*1024" style="text;html=1;strokeColor=none;fillColor=none;align=center;verticalAlign=middle;whiteSpace=wrap;rounded=0;strokeWidth=1;fontSize=12;" parent="1" vertex="1">
          <mxGeometry x="101" y="318" width="60" height="30" as="geometry" />
        </mxCell>
        <mxCell id="96Z2TRk2g2hctk14bLeR-344" value="20*20*1024" style="text;html=1;strokeColor=none;fillColor=none;align=center;verticalAlign=middle;whiteSpace=wrap;rounded=0;strokeWidth=1;fontSize=12;" parent="1" vertex="1">
          <mxGeometry x="101" y="255" width="60" height="30" as="geometry" />
        </mxCell>
        <mxCell id="96Z2TRk2g2hctk14bLeR-345" value="20*20*1024" style="text;html=1;strokeColor=none;fillColor=none;align=center;verticalAlign=middle;whiteSpace=wrap;rounded=0;strokeWidth=1;fontSize=12;" parent="1" vertex="1">
          <mxGeometry x="101" y="190" width="60" height="30" as="geometry" />
        </mxCell>
        <mxCell id="96Z2TRk2g2hctk14bLeR-346" value="40*40*256" style="text;html=1;strokeColor=none;fillColor=none;align=center;verticalAlign=middle;whiteSpace=wrap;rounded=0;strokeWidth=1;fontSize=12;" parent="1" vertex="1">
          <mxGeometry x="313.5" y="318" width="60" height="30" as="geometry" />
        </mxCell>
        <mxCell id="96Z2TRk2g2hctk14bLeR-348" value="20*20*256" style="text;html=1;strokeColor=none;fillColor=none;align=center;verticalAlign=middle;whiteSpace=wrap;rounded=0;strokeWidth=1;fontSize=12;" parent="1" vertex="1">
          <mxGeometry x="315" y="270" width="60" height="30" as="geometry" />
        </mxCell>
        <mxCell id="96Z2TRk2g2hctk14bLeR-349" value="20*20*512" style="text;html=1;strokeColor=none;fillColor=none;align=center;verticalAlign=middle;whiteSpace=wrap;rounded=0;strokeWidth=1;fontSize=12;" parent="1" vertex="1">
          <mxGeometry x="314" y="225" width="60" height="30" as="geometry" />
        </mxCell>
        <mxCell id="96Z2TRk2g2hctk14bLeR-351" value="40*40*512" style="text;html=1;strokeColor=none;fillColor=none;align=center;verticalAlign=middle;whiteSpace=wrap;rounded=0;strokeWidth=1;fontSize=12;" parent="1" vertex="1">
          <mxGeometry x="317.5" y="362" width="56" height="30" as="geometry" />
        </mxCell>
        <mxCell id="96Z2TRk2g2hctk14bLeR-352" value="40*40*1024" style="text;html=1;strokeColor=none;fillColor=none;align=center;verticalAlign=middle;whiteSpace=wrap;rounded=0;strokeWidth=1;fontSize=12;" parent="1" vertex="1">
          <mxGeometry x="317" y="400" width="56" height="30" as="geometry" />
        </mxCell>
        <mxCell id="96Z2TRk2g2hctk14bLeR-353" value="40*40*256" style="text;html=1;strokeColor=none;fillColor=none;align=center;verticalAlign=middle;whiteSpace=wrap;rounded=0;strokeWidth=1;fontSize=12;" parent="1" vertex="1">
          <mxGeometry x="314.5" y="440" width="56" height="30" as="geometry" />
        </mxCell>
        <mxCell id="96Z2TRk2g2hctk14bLeR-355" value="40*40*128" style="text;html=1;strokeColor=none;fillColor=none;align=center;verticalAlign=middle;whiteSpace=wrap;rounded=0;strokeWidth=1;fontSize=12;" parent="1" vertex="1">
          <mxGeometry x="315" y="489" width="56" height="30" as="geometry" />
        </mxCell>
        <mxCell id="96Z2TRk2g2hctk14bLeR-356" value="80*80*128" style="text;html=1;strokeColor=none;fillColor=none;align=center;verticalAlign=middle;whiteSpace=wrap;rounded=0;strokeWidth=1;fontSize=12;" parent="1" vertex="1">
          <mxGeometry x="317.5" y="532" width="56" height="30" as="geometry" />
        </mxCell>
        <mxCell id="96Z2TRk2g2hctk14bLeR-357" value="80*80*128" style="text;html=1;strokeColor=none;fillColor=none;align=center;verticalAlign=middle;whiteSpace=wrap;rounded=0;strokeWidth=1;fontSize=12;" parent="1" vertex="1">
          <mxGeometry x="220" y="532" width="56" height="30" as="geometry" />
        </mxCell>
        <mxCell id="96Z2TRk2g2hctk14bLeR-358" value="80*80*256" style="text;html=1;strokeColor=none;fillColor=none;align=center;verticalAlign=middle;whiteSpace=wrap;rounded=0;strokeWidth=1;fontSize=12;" parent="1" vertex="1">
          <mxGeometry x="318" y="580" width="56" height="30" as="geometry" />
        </mxCell>
        <mxCell id="96Z2TRk2g2hctk14bLeR-360" value="80*80*512" style="text;html=1;strokeColor=none;fillColor=none;align=center;verticalAlign=middle;whiteSpace=wrap;rounded=0;strokeWidth=1;fontSize=12;" parent="1" vertex="1">
          <mxGeometry x="319" y="630" width="56" height="30" as="geometry" />
        </mxCell>
        <mxCell id="fXJZHlOHp_XLVNjCbuLn-1" value="40*40*256" style="text;html=1;strokeColor=none;fillColor=none;align=center;verticalAlign=middle;whiteSpace=wrap;rounded=0;strokeWidth=1;fontSize=12;" parent="1" vertex="1">
          <mxGeometry x="243.5" y="318" width="60" height="30" as="geometry" />
        </mxCell>
        <mxCell id="fXJZHlOHp_XLVNjCbuLn-3" style="edgeStyle=orthogonalEdgeStyle;rounded=0;orthogonalLoop=1;jettySize=auto;html=1;entryX=0;entryY=0.5;entryDx=0;entryDy=0;exitX=1;exitY=0.5;exitDx=0;exitDy=0;" parent="1" source="96Z2TRk2g2hctk14bLeR-218" edge="1">
          <mxGeometry relative="1" as="geometry">
            <mxPoint x="791" y="1182.3599999999997" as="targetPoint" />
            <mxPoint x="781" y="1190" as="sourcePoint" />
          </mxGeometry>
        </mxCell>
        <mxCell id="a6rZ2WNsQKCH5PQ9cZ_o-12" style="edgeStyle=orthogonalEdgeStyle;rounded=0;orthogonalLoop=1;jettySize=auto;html=1;exitX=0.5;exitY=1;exitDx=0;exitDy=0;entryX=0.5;entryY=0;entryDx=0;entryDy=0;fontFamily=Tahoma;fontSize=6;" parent="1" source="96Z2TRk2g2hctk14bLeR-54" target="96Z2TRk2g2hctk14bLeR-60" edge="1">
          <mxGeometry relative="1" as="geometry">
            <mxPoint x="310" y="506" as="sourcePoint" />
          </mxGeometry>
        </mxCell>
        <mxCell id="a6rZ2WNsQKCH5PQ9cZ_o-15" style="edgeStyle=orthogonalEdgeStyle;rounded=0;orthogonalLoop=1;jettySize=auto;html=1;exitX=0.5;exitY=1;exitDx=0;exitDy=0;entryX=0.5;entryY=0;entryDx=0;entryDy=0;fontFamily=Tahoma;fontSize=6;" parent="1" source="96Z2TRk2g2hctk14bLeR-30" target="96Z2TRk2g2hctk14bLeR-32" edge="1">
          <mxGeometry relative="1" as="geometry">
            <mxPoint x="310" y="287" as="sourcePoint" />
          </mxGeometry>
        </mxCell>
        <mxCell id="a6rZ2WNsQKCH5PQ9cZ_o-16" style="edgeStyle=orthogonalEdgeStyle;rounded=0;orthogonalLoop=1;jettySize=auto;html=1;exitX=0.5;exitY=1;exitDx=0;exitDy=0;fontFamily=Tahoma;fontSize=6;" parent="1" source="96Z2TRk2g2hctk14bLeR-348" target="96Z2TRk2g2hctk14bLeR-348" edge="1">
          <mxGeometry relative="1" as="geometry" />
        </mxCell>
        <mxCell id="KWhuUIyhuwhSW9V_fMmg-5" value="cat" style="ellipse;whiteSpace=wrap;html=1;rounded=1;fillColor=#fff2cc;strokeColor=#d6b656;" parent="1" vertex="1">
          <mxGeometry x="482" y="1060.03" width="30" height="30" as="geometry" />
        </mxCell>
        <mxCell id="KWhuUIyhuwhSW9V_fMmg-6" value="cat" style="ellipse;whiteSpace=wrap;html=1;rounded=1;fillColor=#fff2cc;strokeColor=#d6b656;" parent="1" vertex="1">
          <mxGeometry x="477" y="1167.5" width="30" height="30" as="geometry" />
        </mxCell>
        <mxCell id="KWhuUIyhuwhSW9V_fMmg-7" value="cat" style="ellipse;whiteSpace=wrap;html=1;rounded=1;fillColor=#fff2cc;strokeColor=#d6b656;" parent="1" vertex="1">
          <mxGeometry x="747" y="1167.5" width="30" height="30" as="geometry" />
        </mxCell>
        <mxCell id="KWhuUIyhuwhSW9V_fMmg-22" style="edgeStyle=orthogonalEdgeStyle;rounded=0;orthogonalLoop=1;jettySize=auto;html=1;exitX=1;exitY=0.5;exitDx=0;exitDy=0;entryX=0;entryY=0.5;entryDx=0;entryDy=0;" parent="1" source="KWhuUIyhuwhSW9V_fMmg-9" target="l5IW7-BxStBXswQpxy_3-40" edge="1">
          <mxGeometry relative="1" as="geometry">
            <mxPoint x="704" y="1284" as="targetPoint" />
          </mxGeometry>
        </mxCell>
        <mxCell id="KWhuUIyhuwhSW9V_fMmg-9" value="cat" style="ellipse;whiteSpace=wrap;html=1;rounded=1;fillColor=#fff2cc;strokeColor=#d6b656;" parent="1" vertex="1">
          <mxGeometry x="661.5" y="1269.38" width="30" height="30" as="geometry" />
        </mxCell>
        <mxCell id="KWhuUIyhuwhSW9V_fMmg-10" value="add" style="ellipse;whiteSpace=wrap;html=1;rounded=1;fillColor=#CC6600;strokeColor=#0e8088;" parent="1" vertex="1">
          <mxGeometry x="757" y="965" width="30" height="30" as="geometry" />
        </mxCell>
        <mxCell id="KWhuUIyhuwhSW9V_fMmg-11" value="MPConv" style="rounded=1;whiteSpace=wrap;html=1;fillColor=#fad9d5;strokeColor=#ae4132;" parent="1" vertex="1">
          <mxGeometry x="531" y="1172.5" width="50" height="20" as="geometry" />
        </mxCell>
        <mxCell id="KWhuUIyhuwhSW9V_fMmg-21" style="edgeStyle=orthogonalEdgeStyle;rounded=0;orthogonalLoop=1;jettySize=auto;html=1;exitX=0.5;exitY=1;exitDx=0;exitDy=0;entryX=0;entryY=0.5;entryDx=0;entryDy=0;" parent="1" source="l5IW7-BxStBXswQpxy_3-29" edge="1" target="KWhuUIyhuwhSW9V_fMmg-9">
          <mxGeometry relative="1" as="geometry">
            <mxPoint x="654" y="1290" as="targetPoint" />
            <mxPoint x="634" y="1283.7400000000002" as="sourcePoint" />
            <Array as="points">
              <mxPoint x="623" y="1284" />
            </Array>
          </mxGeometry>
        </mxCell>
        <mxCell id="fVnWcU2E26thX-RbtaxY-2" value="" style="edgeStyle=orthogonalEdgeStyle;rounded=0;orthogonalLoop=1;jettySize=auto;html=1;" parent="1" source="b3Fnygi5dWCpyMjXDEdl-1" target="b3Fnygi5dWCpyMjXDEdl-7" edge="1">
          <mxGeometry relative="1" as="geometry" />
        </mxCell>
        <mxCell id="b3Fnygi5dWCpyMjXDEdl-1" value="BConv" style="whiteSpace=wrap;html=1;rounded=1;fillColor=#dae8fc;strokeColor=#6c8ebf;" parent="1" vertex="1">
          <mxGeometry x="251" y="730" width="120" height="20" as="geometry" />
        </mxCell>
        <mxCell id="b3Fnygi5dWCpyMjXDEdl-3" value="80*80*128" style="text;html=1;strokeColor=none;fillColor=none;align=center;verticalAlign=middle;whiteSpace=wrap;rounded=0;strokeWidth=1;fontSize=12;" parent="1" vertex="1">
          <mxGeometry x="318" y="700" width="56" height="30" as="geometry" />
        </mxCell>
        <mxCell id="b3Fnygi5dWCpyMjXDEdl-6" value="80*80*64" style="text;html=1;strokeColor=none;fillColor=none;align=center;verticalAlign=middle;whiteSpace=wrap;rounded=0;strokeWidth=1;fontSize=12;" parent="1" vertex="1">
          <mxGeometry x="319" y="760" width="56" height="30" as="geometry" />
        </mxCell>
        <mxCell id="b3Fnygi5dWCpyMjXDEdl-14" value="" style="edgeStyle=orthogonalEdgeStyle;rounded=0;orthogonalLoop=1;jettySize=auto;html=1;" parent="1" source="b3Fnygi5dWCpyMjXDEdl-7" target="b3Fnygi5dWCpyMjXDEdl-13" edge="1">
          <mxGeometry relative="1" as="geometry" />
        </mxCell>
        <mxCell id="b3Fnygi5dWCpyMjXDEdl-7" value="UPsample" style="rounded=1;whiteSpace=wrap;html=1;fillColor=#99CCFF;" parent="1" vertex="1">
          <mxGeometry x="251" y="790" width="120" height="20" as="geometry" />
        </mxCell>
        <mxCell id="b3Fnygi5dWCpyMjXDEdl-16" style="edgeStyle=orthogonalEdgeStyle;rounded=0;orthogonalLoop=1;jettySize=auto;html=1;entryX=0;entryY=0.5;entryDx=0;entryDy=0;" parent="1" source="l5IW7-BxStBXswQpxy_3-15" target="b3Fnygi5dWCpyMjXDEdl-13" edge="1">
          <mxGeometry relative="1" as="geometry">
            <mxPoint x="240" y="860" as="targetPoint" />
            <Array as="points">
              <mxPoint x="240" y="720" />
              <mxPoint x="240" y="865" />
            </Array>
            <mxPoint x="200" y="760" as="sourcePoint" />
          </mxGeometry>
        </mxCell>
        <mxCell id="l5IW7-BxStBXswQpxy_3-17" value="" style="edgeStyle=orthogonalEdgeStyle;rounded=0;orthogonalLoop=1;jettySize=auto;html=1;" edge="1" parent="1" source="b3Fnygi5dWCpyMjXDEdl-9" target="l5IW7-BxStBXswQpxy_3-15">
          <mxGeometry relative="1" as="geometry" />
        </mxCell>
        <mxCell id="b3Fnygi5dWCpyMjXDEdl-9" value="BConv" style="rounded=1;whiteSpace=wrap;html=1;fillColor=#dae8fc;strokeColor=#6c8ebf;" parent="1" vertex="1">
          <mxGeometry x="111" y="710" width="60" height="20" as="geometry" />
        </mxCell>
        <mxCell id="b3Fnygi5dWCpyMjXDEdl-27" style="edgeStyle=orthogonalEdgeStyle;rounded=0;orthogonalLoop=1;jettySize=auto;html=1;exitX=1;exitY=0.5;exitDx=0;exitDy=0;entryX=0;entryY=0.5;entryDx=0;entryDy=0;" parent="1" source="b3Fnygi5dWCpyMjXDEdl-13" target="b3Fnygi5dWCpyMjXDEdl-26" edge="1">
          <mxGeometry relative="1" as="geometry" />
        </mxCell>
        <mxCell id="b3Fnygi5dWCpyMjXDEdl-13" value="cat" style="ellipse;whiteSpace=wrap;html=1;rounded=1;fillColor=#fff2cc;strokeColor=#d6b656;" parent="1" vertex="1">
          <mxGeometry x="296" y="850" width="30" height="30" as="geometry" />
        </mxCell>
        <mxCell id="b3Fnygi5dWCpyMjXDEdl-17" value="" style="edgeStyle=orthogonalEdgeStyle;rounded=0;orthogonalLoop=1;jettySize=auto;html=1;" parent="1" source="b3Fnygi5dWCpyMjXDEdl-18" target="b3Fnygi5dWCpyMjXDEdl-20" edge="1">
          <mxGeometry relative="1" as="geometry" />
        </mxCell>
        <mxCell id="b3Fnygi5dWCpyMjXDEdl-18" value="REP" style="rounded=1;whiteSpace=wrap;html=1;fillColor=#fad7ac;strokeColor=#b46504;" parent="1" vertex="1">
          <mxGeometry x="600" y="855" width="40" height="20" as="geometry" />
        </mxCell>
        <mxCell id="b3Fnygi5dWCpyMjXDEdl-19" value="" style="edgeStyle=orthogonalEdgeStyle;rounded=0;orthogonalLoop=1;jettySize=auto;html=1;" parent="1" source="b3Fnygi5dWCpyMjXDEdl-20" target="b3Fnygi5dWCpyMjXDEdl-21" edge="1">
          <mxGeometry relative="1" as="geometry" />
        </mxCell>
        <mxCell id="b3Fnygi5dWCpyMjXDEdl-20" value="Conv" style="rounded=1;whiteSpace=wrap;html=1;fillColor=#eeeeee;strokeColor=#36393d;" parent="1" vertex="1">
          <mxGeometry x="670" y="855" width="40" height="20" as="geometry" />
        </mxCell>
        <mxCell id="b3Fnygi5dWCpyMjXDEdl-21" value="" style="shape=cube;whiteSpace=wrap;html=1;boundedLbl=1;backgroundOutline=1;darkOpacity=0.05;darkOpacity2=0.1;size=10;fontStyle=1;fillColor=#dae8fc;strokeColor=#6c8ebf;" parent="1" vertex="1">
          <mxGeometry x="740" y="845" width="40" height="40" as="geometry" />
        </mxCell>
        <mxCell id="b3Fnygi5dWCpyMjXDEdl-22" value="160*160*85" style="text;html=1;strokeColor=none;fillColor=none;align=center;verticalAlign=middle;whiteSpace=wrap;rounded=0;strokeWidth=1;fontSize=12;" parent="1" vertex="1">
          <mxGeometry x="732" y="884.03" width="56" height="30" as="geometry" />
        </mxCell>
        <mxCell id="b3Fnygi5dWCpyMjXDEdl-28" value="" style="edgeStyle=orthogonalEdgeStyle;rounded=0;orthogonalLoop=1;jettySize=auto;html=1;" parent="1" source="b3Fnygi5dWCpyMjXDEdl-26" target="b3Fnygi5dWCpyMjXDEdl-18" edge="1">
          <mxGeometry relative="1" as="geometry" />
        </mxCell>
        <mxCell id="b3Fnygi5dWCpyMjXDEdl-52" style="edgeStyle=orthogonalEdgeStyle;rounded=0;orthogonalLoop=1;jettySize=auto;html=1;exitX=0.5;exitY=0;exitDx=0;exitDy=0;" parent="1" source="b3Fnygi5dWCpyMjXDEdl-26" target="b3Fnygi5dWCpyMjXDEdl-29" edge="1">
          <mxGeometry relative="1" as="geometry" />
        </mxCell>
        <mxCell id="b3Fnygi5dWCpyMjXDEdl-26" value="C3" style="rounded=1;whiteSpace=wrap;html=1;fillColor=#dae8fc;strokeColor=#6c8ebf;" parent="1" vertex="1">
          <mxGeometry x="444" y="855" width="60" height="20" as="geometry" />
        </mxCell>
        <mxCell id="b3Fnygi5dWCpyMjXDEdl-33" value="" style="edgeStyle=orthogonalEdgeStyle;rounded=0;orthogonalLoop=1;jettySize=auto;html=1;" parent="1" source="b3Fnygi5dWCpyMjXDEdl-29" target="b3Fnygi5dWCpyMjXDEdl-32" edge="1">
          <mxGeometry relative="1" as="geometry" />
        </mxCell>
        <mxCell id="b3Fnygi5dWCpyMjXDEdl-29" value="MPConv" style="whiteSpace=wrap;html=1;rounded=1;fillColor=#f8cecc;strokeColor=#b85450;" parent="1" vertex="1">
          <mxGeometry x="414" y="670" width="120" height="20" as="geometry" />
        </mxCell>
        <mxCell id="b3Fnygi5dWCpyMjXDEdl-43" style="edgeStyle=orthogonalEdgeStyle;rounded=0;orthogonalLoop=1;jettySize=auto;html=1;exitX=0.5;exitY=0;exitDx=0;exitDy=0;entryX=0.5;entryY=1;entryDx=0;entryDy=0;" parent="1" source="b3Fnygi5dWCpyMjXDEdl-32" target="b3Fnygi5dWCpyMjXDEdl-34" edge="1">
          <mxGeometry relative="1" as="geometry" />
        </mxCell>
        <mxCell id="b3Fnygi5dWCpyMjXDEdl-59" value="" style="edgeStyle=orthogonalEdgeStyle;rounded=0;orthogonalLoop=1;jettySize=auto;html=1;" parent="1" source="b3Fnygi5dWCpyMjXDEdl-32" target="b3Fnygi5dWCpyMjXDEdl-54" edge="1">
          <mxGeometry relative="1" as="geometry" />
        </mxCell>
        <mxCell id="b3Fnygi5dWCpyMjXDEdl-32" value="C3" style="rounded=1;whiteSpace=wrap;html=1;fillColor=#dae8fc;strokeColor=#6c8ebf;" parent="1" vertex="1">
          <mxGeometry x="444" y="565" width="60" height="20" as="geometry" />
        </mxCell>
        <mxCell id="b3Fnygi5dWCpyMjXDEdl-41" value="" style="edgeStyle=orthogonalEdgeStyle;rounded=0;orthogonalLoop=1;jettySize=auto;html=1;" parent="1" source="b3Fnygi5dWCpyMjXDEdl-34" target="b3Fnygi5dWCpyMjXDEdl-40" edge="1">
          <mxGeometry relative="1" as="geometry" />
        </mxCell>
        <mxCell id="b3Fnygi5dWCpyMjXDEdl-34" value="MPConv" style="whiteSpace=wrap;html=1;rounded=1;fillColor=#f8cecc;strokeColor=#b85450;" parent="1" vertex="1">
          <mxGeometry x="414" y="470" width="120" height="20" as="geometry" />
        </mxCell>
        <mxCell id="b3Fnygi5dWCpyMjXDEdl-39" style="edgeStyle=orthogonalEdgeStyle;rounded=0;orthogonalLoop=1;jettySize=auto;html=1;exitX=0.5;exitY=1;exitDx=0;exitDy=0;" parent="1" source="b3Fnygi5dWCpyMjXDEdl-34" target="b3Fnygi5dWCpyMjXDEdl-34" edge="1">
          <mxGeometry relative="1" as="geometry" />
        </mxCell>
        <mxCell id="b3Fnygi5dWCpyMjXDEdl-48" style="edgeStyle=orthogonalEdgeStyle;rounded=0;orthogonalLoop=1;jettySize=auto;html=1;exitX=0.5;exitY=0;exitDx=0;exitDy=0;entryX=0.5;entryY=1;entryDx=0;entryDy=0;" parent="1" source="b3Fnygi5dWCpyMjXDEdl-40" target="b3Fnygi5dWCpyMjXDEdl-42" edge="1">
          <mxGeometry relative="1" as="geometry" />
        </mxCell>
        <mxCell id="b3Fnygi5dWCpyMjXDEdl-69" style="edgeStyle=orthogonalEdgeStyle;rounded=0;orthogonalLoop=1;jettySize=auto;html=1;exitX=1;exitY=0.5;exitDx=0;exitDy=0;entryX=0;entryY=0.5;entryDx=0;entryDy=0;" parent="1" source="b3Fnygi5dWCpyMjXDEdl-40" target="b3Fnygi5dWCpyMjXDEdl-61" edge="1">
          <mxGeometry relative="1" as="geometry" />
        </mxCell>
        <mxCell id="b3Fnygi5dWCpyMjXDEdl-40" value="Catconv" style="rounded=1;whiteSpace=wrap;html=1;fillColor=#cdeb8b;strokeColor=#36393d;" parent="1" vertex="1">
          <mxGeometry x="414" y="360" width="120" height="20" as="geometry" />
        </mxCell>
        <mxCell id="b3Fnygi5dWCpyMjXDEdl-83" value="" style="edgeStyle=orthogonalEdgeStyle;rounded=0;orthogonalLoop=1;jettySize=auto;html=1;" parent="1" source="b3Fnygi5dWCpyMjXDEdl-42" target="b3Fnygi5dWCpyMjXDEdl-71" edge="1">
          <mxGeometry relative="1" as="geometry" />
        </mxCell>
        <mxCell id="b3Fnygi5dWCpyMjXDEdl-42" value="MPConv" style="whiteSpace=wrap;html=1;rounded=1;fillColor=#f8cecc;strokeColor=#b85450;" parent="1" vertex="1">
          <mxGeometry x="414" y="290" width="120" height="20" as="geometry" />
        </mxCell>
        <mxCell id="b3Fnygi5dWCpyMjXDEdl-53" value="" style="edgeStyle=orthogonalEdgeStyle;rounded=0;orthogonalLoop=1;jettySize=auto;html=1;" parent="1" source="b3Fnygi5dWCpyMjXDEdl-54" target="b3Fnygi5dWCpyMjXDEdl-56" edge="1">
          <mxGeometry relative="1" as="geometry" />
        </mxCell>
        <mxCell id="b3Fnygi5dWCpyMjXDEdl-54" value="REP" style="rounded=1;whiteSpace=wrap;html=1;fillColor=#fad7ac;strokeColor=#b46504;" parent="1" vertex="1">
          <mxGeometry x="595.5" y="565" width="40" height="20" as="geometry" />
        </mxCell>
        <mxCell id="b3Fnygi5dWCpyMjXDEdl-55" value="" style="edgeStyle=orthogonalEdgeStyle;rounded=0;orthogonalLoop=1;jettySize=auto;html=1;" parent="1" source="b3Fnygi5dWCpyMjXDEdl-56" target="b3Fnygi5dWCpyMjXDEdl-57" edge="1">
          <mxGeometry relative="1" as="geometry" />
        </mxCell>
        <mxCell id="b3Fnygi5dWCpyMjXDEdl-56" value="Conv" style="rounded=1;whiteSpace=wrap;html=1;fillColor=#eeeeee;strokeColor=#36393d;" parent="1" vertex="1">
          <mxGeometry x="665.5" y="565" width="40" height="20" as="geometry" />
        </mxCell>
        <mxCell id="b3Fnygi5dWCpyMjXDEdl-57" value="" style="shape=cube;whiteSpace=wrap;html=1;boundedLbl=1;backgroundOutline=1;darkOpacity=0.05;darkOpacity2=0.1;size=10;fillColor=#d5e8d4;strokeColor=#82b366;" parent="1" vertex="1">
          <mxGeometry x="735.5" y="555" width="40" height="40" as="geometry" />
        </mxCell>
        <mxCell id="b3Fnygi5dWCpyMjXDEdl-58" value="80*80*85" style="text;html=1;strokeColor=none;fillColor=none;align=center;verticalAlign=middle;whiteSpace=wrap;rounded=0;strokeWidth=1;fontSize=12;" parent="1" vertex="1">
          <mxGeometry x="728.5" y="595" width="56" height="30" as="geometry" />
        </mxCell>
        <mxCell id="b3Fnygi5dWCpyMjXDEdl-60" value="" style="edgeStyle=orthogonalEdgeStyle;rounded=0;orthogonalLoop=1;jettySize=auto;html=1;" parent="1" source="b3Fnygi5dWCpyMjXDEdl-61" target="b3Fnygi5dWCpyMjXDEdl-63" edge="1">
          <mxGeometry relative="1" as="geometry" />
        </mxCell>
        <mxCell id="b3Fnygi5dWCpyMjXDEdl-61" value="REP" style="rounded=1;whiteSpace=wrap;html=1;fillColor=#fad7ac;strokeColor=#b46504;" parent="1" vertex="1">
          <mxGeometry x="590" y="360" width="40" height="20" as="geometry" />
        </mxCell>
        <mxCell id="b3Fnygi5dWCpyMjXDEdl-62" value="" style="edgeStyle=orthogonalEdgeStyle;rounded=0;orthogonalLoop=1;jettySize=auto;html=1;" parent="1" source="b3Fnygi5dWCpyMjXDEdl-63" target="b3Fnygi5dWCpyMjXDEdl-64" edge="1">
          <mxGeometry relative="1" as="geometry" />
        </mxCell>
        <mxCell id="b3Fnygi5dWCpyMjXDEdl-63" value="Conv" style="rounded=1;whiteSpace=wrap;html=1;fillColor=#eeeeee;strokeColor=#36393d;" parent="1" vertex="1">
          <mxGeometry x="661" y="360" width="40" height="20" as="geometry" />
        </mxCell>
        <mxCell id="b3Fnygi5dWCpyMjXDEdl-64" value="" style="shape=cube;whiteSpace=wrap;html=1;boundedLbl=1;backgroundOutline=1;darkOpacity=0.05;darkOpacity2=0.1;size=10;fillColor=#f8cecc;strokeColor=#b85450;" parent="1" vertex="1">
          <mxGeometry x="732" y="350" width="40" height="40" as="geometry" />
        </mxCell>
        <mxCell id="b3Fnygi5dWCpyMjXDEdl-70" value="40*40*85" style="text;html=1;strokeColor=none;fillColor=none;align=center;verticalAlign=middle;whiteSpace=wrap;rounded=0;strokeWidth=1;fontSize=12;" parent="1" vertex="1">
          <mxGeometry x="727.5" y="395" width="56" height="30" as="geometry" />
        </mxCell>
        <mxCell id="fVnWcU2E26thX-RbtaxY-10" value="" style="edgeStyle=orthogonalEdgeStyle;rounded=0;orthogonalLoop=1;jettySize=auto;html=1;" parent="1" source="b3Fnygi5dWCpyMjXDEdl-71" target="b3Fnygi5dWCpyMjXDEdl-73" edge="1">
          <mxGeometry relative="1" as="geometry" />
        </mxCell>
        <mxCell id="b3Fnygi5dWCpyMjXDEdl-71" value="CS3TR" style="rounded=1;whiteSpace=wrap;html=1;fillColor=#ffcd28;gradientColor=#ffa500;strokeColor=#d79b00;" parent="1" vertex="1">
          <mxGeometry x="439" y="240" width="70" height="20" as="geometry" />
        </mxCell>
        <mxCell id="b3Fnygi5dWCpyMjXDEdl-82" style="edgeStyle=orthogonalEdgeStyle;rounded=0;orthogonalLoop=1;jettySize=auto;html=1;exitX=1;exitY=0.5;exitDx=0;exitDy=0;entryX=0;entryY=0.5;entryDx=0;entryDy=0;" parent="1" source="b3Fnygi5dWCpyMjXDEdl-73" target="b3Fnygi5dWCpyMjXDEdl-76" edge="1">
          <mxGeometry relative="1" as="geometry" />
        </mxCell>
        <mxCell id="b3Fnygi5dWCpyMjXDEdl-73" value="Conv" style="rounded=1;whiteSpace=wrap;html=1;fillColor=#eeeeee;strokeColor=#36393d;" parent="1" vertex="1">
          <mxGeometry x="454" y="190" width="40" height="20" as="geometry" />
        </mxCell>
        <mxCell id="b3Fnygi5dWCpyMjXDEdl-75" value="" style="edgeStyle=orthogonalEdgeStyle;rounded=0;orthogonalLoop=1;jettySize=auto;html=1;" parent="1" source="b3Fnygi5dWCpyMjXDEdl-76" target="b3Fnygi5dWCpyMjXDEdl-78" edge="1">
          <mxGeometry relative="1" as="geometry" />
        </mxCell>
        <mxCell id="b3Fnygi5dWCpyMjXDEdl-76" value="REP" style="rounded=1;whiteSpace=wrap;html=1;fillColor=#fad7ac;strokeColor=#b46504;" parent="1" vertex="1">
          <mxGeometry x="590" y="190" width="40" height="20" as="geometry" />
        </mxCell>
        <mxCell id="b3Fnygi5dWCpyMjXDEdl-77" value="" style="edgeStyle=orthogonalEdgeStyle;rounded=0;orthogonalLoop=1;jettySize=auto;html=1;" parent="1" source="b3Fnygi5dWCpyMjXDEdl-78" target="b3Fnygi5dWCpyMjXDEdl-79" edge="1">
          <mxGeometry relative="1" as="geometry" />
        </mxCell>
        <mxCell id="b3Fnygi5dWCpyMjXDEdl-78" value="Conv" style="rounded=1;whiteSpace=wrap;html=1;fillColor=#eeeeee;strokeColor=#36393d;" parent="1" vertex="1">
          <mxGeometry x="657.5" y="190" width="40" height="20" as="geometry" />
        </mxCell>
        <mxCell id="b3Fnygi5dWCpyMjXDEdl-79" value="" style="shape=cube;whiteSpace=wrap;html=1;boundedLbl=1;backgroundOutline=1;darkOpacity=0.05;darkOpacity2=0.1;size=10;fillColor=#e1d5e7;strokeColor=#9673a6;" parent="1" vertex="1">
          <mxGeometry x="728.5" y="180" width="40" height="40" as="geometry" />
        </mxCell>
        <mxCell id="b3Fnygi5dWCpyMjXDEdl-80" value="20*20*85" style="text;html=1;strokeColor=none;fillColor=none;align=center;verticalAlign=middle;whiteSpace=wrap;rounded=0;strokeWidth=1;fontSize=12;" parent="1" vertex="1">
          <mxGeometry x="724" y="225" width="56" height="30" as="geometry" />
        </mxCell>
        <mxCell id="fVnWcU2E26thX-RbtaxY-1" value="160*160*64" style="text;html=1;strokeColor=none;fillColor=none;align=center;verticalAlign=middle;whiteSpace=wrap;rounded=0;strokeWidth=1;fontSize=12;" parent="1" vertex="1">
          <mxGeometry x="218" y="690" width="60" height="30" as="geometry" />
        </mxCell>
        <mxCell id="fVnWcU2E26thX-RbtaxY-3" value="160*160*64" style="text;html=1;strokeColor=none;fillColor=none;align=center;verticalAlign=middle;whiteSpace=wrap;rounded=0;strokeWidth=1;fontSize=12;" parent="1" vertex="1">
          <mxGeometry x="319" y="810" width="56" height="30" as="geometry" />
        </mxCell>
        <mxCell id="fVnWcU2E26thX-RbtaxY-4" value="160*160*64" style="text;html=1;strokeColor=none;fillColor=none;align=center;verticalAlign=middle;whiteSpace=wrap;rounded=0;strokeWidth=1;fontSize=12;" parent="1" vertex="1">
          <mxGeometry x="534" y="840" width="56" height="30" as="geometry" />
        </mxCell>
        <mxCell id="fVnWcU2E26thX-RbtaxY-5" value="80*80*128" style="text;html=1;strokeColor=none;fillColor=none;align=center;verticalAlign=middle;whiteSpace=wrap;rounded=0;strokeWidth=1;fontSize=12;" parent="1" vertex="1">
          <mxGeometry x="518" y="550" width="56" height="30" as="geometry" />
        </mxCell>
        <mxCell id="fVnWcU2E26thX-RbtaxY-6" value="40*40*256" style="text;html=1;strokeColor=none;fillColor=none;align=center;verticalAlign=middle;whiteSpace=wrap;rounded=0;strokeWidth=1;fontSize=12;" parent="1" vertex="1">
          <mxGeometry x="534" y="340" width="56" height="30" as="geometry" />
        </mxCell>
        <mxCell id="fVnWcU2E26thX-RbtaxY-7" value="20*20*512" style="text;html=1;strokeColor=none;fillColor=none;align=center;verticalAlign=middle;whiteSpace=wrap;rounded=0;strokeWidth=1;fontSize=12;" parent="1" vertex="1">
          <mxGeometry x="534" y="167" width="56" height="30" as="geometry" />
        </mxCell>
        <mxCell id="fVnWcU2E26thX-RbtaxY-13" value="80*80*128" style="text;html=1;strokeColor=none;fillColor=none;align=center;verticalAlign=middle;whiteSpace=wrap;rounded=0;strokeWidth=1;fontSize=12;" parent="1" vertex="1">
          <mxGeometry x="369" y="650" width="56" height="30" as="geometry" />
        </mxCell>
        <mxCell id="fVnWcU2E26thX-RbtaxY-14" value="160*160*128" style="text;html=1;strokeColor=none;fillColor=none;align=center;verticalAlign=middle;whiteSpace=wrap;rounded=0;strokeWidth=1;fontSize=12;" parent="1" vertex="1">
          <mxGeometry x="371" y="840" width="56" height="30" as="geometry" />
        </mxCell>
        <mxCell id="fVnWcU2E26thX-RbtaxY-16" value="160*160*64" style="text;html=1;strokeColor=none;fillColor=none;align=center;verticalAlign=middle;whiteSpace=wrap;rounded=0;strokeWidth=1;fontSize=12;" parent="1" vertex="1">
          <mxGeometry x="487" y="820" width="56" height="30" as="geometry" />
        </mxCell>
        <mxCell id="fVnWcU2E26thX-RbtaxY-17" value="80*80*64" style="text;html=1;strokeColor=none;fillColor=none;align=center;verticalAlign=middle;whiteSpace=wrap;rounded=0;strokeWidth=1;fontSize=12;" parent="1" vertex="1">
          <mxGeometry x="487" y="640" width="56" height="30" as="geometry" />
        </mxCell>
        <mxCell id="fVnWcU2E26thX-RbtaxY-18" value="20*20*512" style="text;html=1;strokeColor=none;fillColor=none;align=center;verticalAlign=middle;whiteSpace=wrap;rounded=0;strokeWidth=1;fontSize=12;" parent="1" vertex="1">
          <mxGeometry x="394" y="260" width="60" height="30" as="geometry" />
        </mxCell>
        <mxCell id="fVnWcU2E26thX-RbtaxY-19" value="80*80*128" style="text;html=1;strokeColor=none;fillColor=none;align=center;verticalAlign=middle;whiteSpace=wrap;rounded=0;strokeWidth=1;fontSize=12;" parent="1" vertex="1">
          <mxGeometry x="487" y="525" width="56" height="30" as="geometry" />
        </mxCell>
        <mxCell id="fVnWcU2E26thX-RbtaxY-20" value="40*40*128" style="text;html=1;strokeColor=none;fillColor=none;align=center;verticalAlign=middle;whiteSpace=wrap;rounded=0;strokeWidth=1;fontSize=12;" parent="1" vertex="1">
          <mxGeometry x="371" y="450" width="56" height="30" as="geometry" />
        </mxCell>
        <mxCell id="fVnWcU2E26thX-RbtaxY-21" value="40*40*128" style="text;html=1;strokeColor=none;fillColor=none;align=center;verticalAlign=middle;whiteSpace=wrap;rounded=0;strokeWidth=1;fontSize=12;" parent="1" vertex="1">
          <mxGeometry x="487" y="445" width="56" height="30" as="geometry" />
        </mxCell>
        <mxCell id="fVnWcU2E26thX-RbtaxY-22" value="40*40*256" style="text;html=1;strokeColor=none;fillColor=none;align=center;verticalAlign=middle;whiteSpace=wrap;rounded=0;strokeWidth=1;fontSize=12;" parent="1" vertex="1">
          <mxGeometry x="487" y="320" width="56" height="30" as="geometry" />
        </mxCell>
        <mxCell id="fVnWcU2E26thX-RbtaxY-23" value="20*20*256" style="text;html=1;strokeColor=none;fillColor=none;align=center;verticalAlign=middle;whiteSpace=wrap;rounded=0;strokeWidth=1;fontSize=12;" parent="1" vertex="1">
          <mxGeometry x="487" y="260" width="56" height="30" as="geometry" />
        </mxCell>
        <mxCell id="fVnWcU2E26thX-RbtaxY-24" value="20*20*1024" style="text;html=1;strokeColor=none;fillColor=none;align=center;verticalAlign=middle;whiteSpace=wrap;rounded=0;strokeWidth=1;fontSize=12;" parent="1" vertex="1">
          <mxGeometry x="487" y="215" width="56" height="30" as="geometry" />
        </mxCell>
        <mxCell id="l5IW7-BxStBXswQpxy_3-11" style="edgeStyle=orthogonalEdgeStyle;rounded=0;orthogonalLoop=1;jettySize=auto;html=1;exitX=1;exitY=0.5;exitDx=0;exitDy=0;entryX=0;entryY=0.5;entryDx=0;entryDy=0;" edge="1" parent="1" source="l5IW7-BxStBXswQpxy_3-5" target="96Z2TRk2g2hctk14bLeR-48">
          <mxGeometry relative="1" as="geometry" />
        </mxCell>
        <mxCell id="l5IW7-BxStBXswQpxy_3-5" value="BConv" style="rounded=1;whiteSpace=wrap;html=1;fillColor=#dae8fc;strokeColor=#6c8ebf;" vertex="1" parent="1">
          <mxGeometry x="159" y="555" width="60" height="20" as="geometry" />
        </mxCell>
        <mxCell id="l5IW7-BxStBXswQpxy_3-15" value="CBAM" style="rounded=1;whiteSpace=wrap;html=1;fillColor=#f5f5f5;fontColor=#333333;strokeColor=#666666;" vertex="1" parent="1">
          <mxGeometry x="190" y="710" width="41" height="20" as="geometry" />
        </mxCell>
        <mxCell id="l5IW7-BxStBXswQpxy_3-19" style="edgeStyle=orthogonalEdgeStyle;rounded=0;orthogonalLoop=1;jettySize=auto;html=1;exitX=1;exitY=0.5;exitDx=0;exitDy=0;entryX=0.5;entryY=0;entryDx=0;entryDy=0;" edge="1" parent="1" source="l5IW7-BxStBXswQpxy_3-18" target="96Z2TRk2g2hctk14bLeR-28">
          <mxGeometry relative="1" as="geometry" />
        </mxCell>
        <mxCell id="l5IW7-BxStBXswQpxy_3-18" value="CBAM" style="rounded=1;whiteSpace=wrap;html=1;fillColor=#f5f5f5;fontColor=#333333;strokeColor=#666666;" vertex="1" parent="1">
          <mxGeometry x="190" y="167" width="41" height="20" as="geometry" />
        </mxCell>
        <mxCell id="l5IW7-BxStBXswQpxy_3-25" value="Conv" style="rounded=1;whiteSpace=wrap;html=1;fillColor=#eeeeee;strokeColor=#36393d;" vertex="1" parent="1">
          <mxGeometry x="411" y="1340" width="40" height="20" as="geometry" />
        </mxCell>
        <mxCell id="l5IW7-BxStBXswQpxy_3-34" style="edgeStyle=orthogonalEdgeStyle;rounded=0;orthogonalLoop=1;jettySize=auto;html=1;exitX=1;exitY=0.5;exitDx=0;exitDy=0;entryX=0;entryY=0.5;entryDx=0;entryDy=0;" edge="1" parent="1" source="l5IW7-BxStBXswQpxy_3-26" target="l5IW7-BxStBXswQpxy_3-31">
          <mxGeometry relative="1" as="geometry">
            <Array as="points">
              <mxPoint x="426" y="1283" />
              <mxPoint x="434" y="1283" />
              <mxPoint x="434" y="1248" />
            </Array>
          </mxGeometry>
        </mxCell>
        <mxCell id="l5IW7-BxStBXswQpxy_3-39" style="edgeStyle=orthogonalEdgeStyle;rounded=0;orthogonalLoop=1;jettySize=auto;html=1;exitX=1;exitY=0.5;exitDx=0;exitDy=0;entryX=0;entryY=0.5;entryDx=0;entryDy=0;" edge="1" parent="1" source="l5IW7-BxStBXswQpxy_3-26" target="KWhuUIyhuwhSW9V_fMmg-9">
          <mxGeometry relative="1" as="geometry">
            <Array as="points">
              <mxPoint x="434" y="1284" />
              <mxPoint x="434" y="1320" />
              <mxPoint x="624" y="1320" />
              <mxPoint x="624" y="1284" />
            </Array>
          </mxGeometry>
        </mxCell>
        <mxCell id="l5IW7-BxStBXswQpxy_3-26" value="Conv" style="rounded=1;whiteSpace=wrap;html=1;fillColor=#eeeeee;strokeColor=#36393d;" vertex="1" parent="1">
          <mxGeometry x="386" y="1274.38" width="40" height="20" as="geometry" />
        </mxCell>
        <mxCell id="l5IW7-BxStBXswQpxy_3-33" style="edgeStyle=orthogonalEdgeStyle;rounded=0;orthogonalLoop=1;jettySize=auto;html=1;exitX=1;exitY=0.5;exitDx=0;exitDy=0;entryX=0;entryY=0.5;entryDx=0;entryDy=0;" edge="1" parent="1" source="l5IW7-BxStBXswQpxy_3-27" target="l5IW7-BxStBXswQpxy_3-26">
          <mxGeometry relative="1" as="geometry" />
        </mxCell>
        <mxCell id="l5IW7-BxStBXswQpxy_3-27" value="Conv" style="rounded=1;whiteSpace=wrap;html=1;fillColor=#eeeeee;strokeColor=#36393d;" vertex="1" parent="1">
          <mxGeometry x="333" y="1274.38" width="40" height="20" as="geometry" />
        </mxCell>
        <mxCell id="l5IW7-BxStBXswQpxy_3-32" style="edgeStyle=orthogonalEdgeStyle;rounded=0;orthogonalLoop=1;jettySize=auto;html=1;exitX=1;exitY=0.5;exitDx=0;exitDy=0;entryX=0;entryY=0.5;entryDx=0;entryDy=0;" edge="1" parent="1" source="l5IW7-BxStBXswQpxy_3-28" target="l5IW7-BxStBXswQpxy_3-27">
          <mxGeometry relative="1" as="geometry" />
        </mxCell>
        <mxCell id="l5IW7-BxStBXswQpxy_3-28" value="Conv" style="rounded=1;whiteSpace=wrap;html=1;fillColor=#eeeeee;strokeColor=#36393d;" vertex="1" parent="1">
          <mxGeometry x="281.5" y="1274.38" width="40" height="20" as="geometry" />
        </mxCell>
        <mxCell id="l5IW7-BxStBXswQpxy_3-29" value="Maxpooling" style="rounded=1;whiteSpace=wrap;html=1;fillColor=#bac8d3;strokeColor=#23445d;" vertex="1" parent="1">
          <mxGeometry x="594.5" y="1238" width="57.5" height="20" as="geometry" />
        </mxCell>
        <mxCell id="l5IW7-BxStBXswQpxy_3-36" style="edgeStyle=orthogonalEdgeStyle;rounded=0;orthogonalLoop=1;jettySize=auto;html=1;exitX=1;exitY=0.5;exitDx=0;exitDy=0;entryX=0;entryY=0.5;entryDx=0;entryDy=0;" edge="1" parent="1" source="l5IW7-BxStBXswQpxy_3-30" target="l5IW7-BxStBXswQpxy_3-29">
          <mxGeometry relative="1" as="geometry" />
        </mxCell>
        <mxCell id="l5IW7-BxStBXswQpxy_3-37" style="edgeStyle=orthogonalEdgeStyle;rounded=0;orthogonalLoop=1;jettySize=auto;html=1;exitX=0.5;exitY=1;exitDx=0;exitDy=0;entryX=0;entryY=0.5;entryDx=0;entryDy=0;" edge="1" parent="1" source="l5IW7-BxStBXswQpxy_3-30" target="KWhuUIyhuwhSW9V_fMmg-9">
          <mxGeometry relative="1" as="geometry" />
        </mxCell>
        <mxCell id="l5IW7-BxStBXswQpxy_3-30" value="Maxpooling" style="rounded=1;whiteSpace=wrap;html=1;fillColor=#bac8d3;strokeColor=#23445d;" vertex="1" parent="1">
          <mxGeometry x="519.5" y="1238" width="61.5" height="20" as="geometry" />
        </mxCell>
        <mxCell id="l5IW7-BxStBXswQpxy_3-35" style="edgeStyle=orthogonalEdgeStyle;rounded=0;orthogonalLoop=1;jettySize=auto;html=1;exitX=1;exitY=0.5;exitDx=0;exitDy=0;entryX=0;entryY=0.5;entryDx=0;entryDy=0;" edge="1" parent="1" source="l5IW7-BxStBXswQpxy_3-31" target="l5IW7-BxStBXswQpxy_3-30">
          <mxGeometry relative="1" as="geometry" />
        </mxCell>
        <mxCell id="l5IW7-BxStBXswQpxy_3-38" style="edgeStyle=orthogonalEdgeStyle;rounded=0;orthogonalLoop=1;jettySize=auto;html=1;exitX=0.5;exitY=1;exitDx=0;exitDy=0;entryX=0;entryY=0.5;entryDx=0;entryDy=0;" edge="1" parent="1" source="l5IW7-BxStBXswQpxy_3-31" target="KWhuUIyhuwhSW9V_fMmg-9">
          <mxGeometry relative="1" as="geometry" />
        </mxCell>
        <mxCell id="l5IW7-BxStBXswQpxy_3-31" value="Maxpooling" style="rounded=1;whiteSpace=wrap;html=1;fillColor=#bac8d3;strokeColor=#23445d;" vertex="1" parent="1">
          <mxGeometry x="446" y="1238" width="61" height="20" as="geometry" />
        </mxCell>
        <mxCell id="l5IW7-BxStBXswQpxy_3-42" style="edgeStyle=orthogonalEdgeStyle;rounded=0;orthogonalLoop=1;jettySize=auto;html=1;exitX=1;exitY=0.5;exitDx=0;exitDy=0;entryX=0;entryY=0.5;entryDx=0;entryDy=0;" edge="1" parent="1" source="l5IW7-BxStBXswQpxy_3-40" target="l5IW7-BxStBXswQpxy_3-41">
          <mxGeometry relative="1" as="geometry" />
        </mxCell>
        <mxCell id="l5IW7-BxStBXswQpxy_3-40" value="Conv" style="rounded=1;whiteSpace=wrap;html=1;fillColor=#eeeeee;strokeColor=#36393d;" vertex="1" parent="1">
          <mxGeometry x="704" y="1273.74" width="40" height="20" as="geometry" />
        </mxCell>
        <mxCell id="l5IW7-BxStBXswQpxy_3-44" style="edgeStyle=orthogonalEdgeStyle;rounded=0;orthogonalLoop=1;jettySize=auto;html=1;exitX=1;exitY=0.5;exitDx=0;exitDy=0;entryX=0;entryY=0.5;entryDx=0;entryDy=0;" edge="1" parent="1" source="l5IW7-BxStBXswQpxy_3-41" target="l5IW7-BxStBXswQpxy_3-43">
          <mxGeometry relative="1" as="geometry" />
        </mxCell>
        <mxCell id="l5IW7-BxStBXswQpxy_3-41" value="Conv" style="rounded=1;whiteSpace=wrap;html=1;fillColor=#eeeeee;strokeColor=#36393d;" vertex="1" parent="1">
          <mxGeometry x="757" y="1274.38" width="40" height="20" as="geometry" />
        </mxCell>
        <mxCell id="l5IW7-BxStBXswQpxy_3-46" style="edgeStyle=orthogonalEdgeStyle;rounded=0;orthogonalLoop=1;jettySize=auto;html=1;exitX=1;exitY=0.5;exitDx=0;exitDy=0;entryX=0;entryY=0.5;entryDx=0;entryDy=0;" edge="1" parent="1" source="l5IW7-BxStBXswQpxy_3-43" target="l5IW7-BxStBXswQpxy_3-45">
          <mxGeometry relative="1" as="geometry" />
        </mxCell>
        <mxCell id="l5IW7-BxStBXswQpxy_3-43" value="cat" style="ellipse;whiteSpace=wrap;html=1;rounded=1;fillColor=#fff2cc;strokeColor=#d6b656;" vertex="1" parent="1">
          <mxGeometry x="814" y="1269.38" width="30" height="30" as="geometry" />
        </mxCell>
        <mxCell id="l5IW7-BxStBXswQpxy_3-45" value="Conv" style="rounded=1;whiteSpace=wrap;html=1;fillColor=#eeeeee;strokeColor=#36393d;" vertex="1" parent="1">
          <mxGeometry x="864" y="1274.38" width="40" height="20" as="geometry" />
        </mxCell>
        <mxCell id="l5IW7-BxStBXswQpxy_3-47" value="K1,S1" style="text;html=1;strokeColor=none;fillColor=none;align=center;verticalAlign=middle;whiteSpace=wrap;rounded=0;strokeWidth=1;fontSize=12;" vertex="1" parent="1">
          <mxGeometry x="273.5" y="1248" width="56" height="30" as="geometry" />
        </mxCell>
        <mxCell id="l5IW7-BxStBXswQpxy_3-48" value="K3,S1" style="text;html=1;strokeColor=none;fillColor=none;align=center;verticalAlign=middle;whiteSpace=wrap;rounded=0;strokeWidth=1;fontSize=12;" vertex="1" parent="1">
          <mxGeometry x="326" y="1248" width="56" height="30" as="geometry" />
        </mxCell>
        <mxCell id="l5IW7-BxStBXswQpxy_3-49" value="K1,S1" style="text;html=1;strokeColor=none;fillColor=none;align=center;verticalAlign=middle;whiteSpace=wrap;rounded=0;strokeWidth=1;fontSize=12;" vertex="1" parent="1">
          <mxGeometry x="378" y="1248" width="56" height="30" as="geometry" />
        </mxCell>
        <mxCell id="l5IW7-BxStBXswQpxy_3-51" value="K1,S1" style="text;html=1;strokeColor=none;fillColor=none;align=center;verticalAlign=middle;whiteSpace=wrap;rounded=0;strokeWidth=1;fontSize=12;" vertex="1" parent="1">
          <mxGeometry x="405" y="1318" width="56" height="30" as="geometry" />
        </mxCell>
        <mxCell id="l5IW7-BxStBXswQpxy_3-52" value="K5" style="text;html=1;strokeColor=none;fillColor=none;align=center;verticalAlign=middle;whiteSpace=wrap;rounded=0;strokeWidth=1;fontSize=12;" vertex="1" parent="1">
          <mxGeometry x="451" y="1218" width="56" height="30" as="geometry" />
        </mxCell>
        <mxCell id="l5IW7-BxStBXswQpxy_3-53" value="K5" style="text;html=1;strokeColor=none;fillColor=none;align=center;verticalAlign=middle;whiteSpace=wrap;rounded=0;strokeWidth=1;fontSize=12;" vertex="1" parent="1">
          <mxGeometry x="522.25" y="1218" width="56" height="30" as="geometry" />
        </mxCell>
        <mxCell id="l5IW7-BxStBXswQpxy_3-54" value="K5" style="text;html=1;strokeColor=none;fillColor=none;align=center;verticalAlign=middle;whiteSpace=wrap;rounded=0;strokeWidth=1;fontSize=12;" vertex="1" parent="1">
          <mxGeometry x="596" y="1218" width="56" height="30" as="geometry" />
        </mxCell>
        <mxCell id="l5IW7-BxStBXswQpxy_3-55" value="K1,S1" style="text;html=1;strokeColor=none;fillColor=none;align=center;verticalAlign=middle;whiteSpace=wrap;rounded=0;strokeWidth=1;fontSize=12;" vertex="1" parent="1">
          <mxGeometry x="696" y="1248" width="56" height="30" as="geometry" />
        </mxCell>
        <mxCell id="l5IW7-BxStBXswQpxy_3-56" value="K3,S1" style="text;html=1;strokeColor=none;fillColor=none;align=center;verticalAlign=middle;whiteSpace=wrap;rounded=0;strokeWidth=1;fontSize=12;" vertex="1" parent="1">
          <mxGeometry x="749" y="1248" width="56" height="30" as="geometry" />
        </mxCell>
        <mxCell id="l5IW7-BxStBXswQpxy_3-57" value="K1,S1" style="text;html=1;strokeColor=none;fillColor=none;align=center;verticalAlign=middle;whiteSpace=wrap;rounded=0;strokeWidth=1;fontSize=12;" vertex="1" parent="1">
          <mxGeometry x="856" y="1248" width="56" height="30" as="geometry" />
        </mxCell>
      </root>
    </mxGraphModel>
  </diagram>
</mxfile>
